<?xml version="1.0" standalone="no"?>
<!DOCTYPE svg PUBLIC "-//W3C//DTD SVG 1.1//EN" "http://www.w3.org/Graphics/SVG/1.1/DTD/svg11.dtd" >
<svg xmlns="http://www.w3.org/2000/svg">
<metadata></metadata>
<defs>
<font id="lemondropregular" horiz-adv-x="1450" >
<font-face units-per-em="2048" ascent="1638" descent="-410" />
<missing-glyph horiz-adv-x="508" />
<glyph horiz-adv-x="0" />
<glyph unicode="&#xd;" horiz-adv-x="508" />
<glyph unicode=" "  horiz-adv-x="508" />
<glyph unicode="&#x09;" horiz-adv-x="508" />
<glyph unicode="&#xa0;" horiz-adv-x="508" />
<glyph unicode="!" horiz-adv-x="703" d="M100 43v152q0 53 48 53h407q48 0 48 -53v-152q0 -42 -45 -42h-413q-45 0 -45 42zM107 579v1149q0 69 73 69h340q76 0 76 -75v-1147q0 -75 -73 -75h-349q-67 0 -67 79z" />
<glyph unicode="&#x22;" horiz-adv-x="1005" d="M150 1539v199q0 59 63 59h180q62 0 62 -59v-199q0 -47 -13 -77l-47 -157q-20 -67 -62 -68h-61q-42 1 -62 68l-47 157q-13 30 -13 77zM550 1539v199q0 59 63 59h180q62 0 62 -59v-199q0 -47 -13 -77l-47 -157q-20 -67 -62 -68h-61q-42 1 -62 68l-47 157q-13 30 -13 77z " />
<glyph unicode="#" horiz-adv-x="950" d="M-160 426v5l13 120q4 41 42 41h162q21 0 24 20l40 261q1 4 1 6q0 17 -19 17h-168q-41 0 -41 28v5l13 119q4 41 32 41h162q41 0 47 45l43 322q5 36 55 36h256q40 -6 40 -47q0 -10 -2 -21l-40 -301q-4 -10 -4 -16q0 -18 24 -18h191q21 0 29 37l45 294q5 72 41 72h106 q17 -4 17 -26q0 -16 -9 -42l-41 -304v-4q0 -27 28 -27h149q34 0 34 -34v-7l-13 -119q-4 -33 -39 -33h-163q-23 0 -26 -25l-27 -242q-2 -8 -2 -14q0 -23 28 -23h154q34 0 34 -34v-7l-13 -120q-4 -32 -39 -32h-168q-26 0 -30 -45l-41 -290q-4 -68 -33 -68h-96q-36 6 -36 34 q0 16 11 38l38 280q1 10 1 18q0 33 -17 33h-202q-23 0 -34 -46l-36 -318v-2q0 -37 -39 -37h-276q-42 1 -42 27q0 3 1 7q5 32 48 355v2q0 12 -14 12h-158q-41 0 -41 27zM441 642q0 -50 35 -50h151q51 0 59 53l26 197q2 14 2 25q0 28 -12 28q-17 -1 -198 -1h-2q-30 0 -33 -60 l-26 -166q-2 -14 -2 -26z" />
<glyph unicode="$" horiz-adv-x="950" d="M94 941q0 37 7 76q41 236 283 311v223q0 45 36 45h76q43 0 43 -48v-196q145 -3 255 -115q23 -20 23 -38q0 -7 -4 -14l-59 -45q-24 -21 -44 -21q-13 0 -24 9q-88 61 -156 61q-63 0 -110 -51q-41 -45 -41 -90q0 -67 86 -136l213 -170q178 -142 178 -332q0 -37 -7 -76 q-42 -238 -286 -313q-12 -4 -24 -7v-169q0 -45 -36 -45h-76q-43 0 -43 48v152q-129 12 -229 114q-23 20 -23 37q0 7 4 14l59 46q24 21 44 21q13 0 24 -9q88 -62 157 -62q63 0 110 52q40 44 40 89q0 67 -85 136l-213 171q-178 142 -178 332z" />
<glyph unicode="%" horiz-adv-x="1900" d="M82 1094q0 161 101 281.5t278 120.5t266.5 -120.5t89.5 -281.5q0 -164 -89 -283.5t-267 -119.5q-177 0 -278 119.5t-101 283.5zM364 16q0 13 11 34l1011 1414q13 34 66 34h87q34 0 34 -24q0 -9 -4 -20l-1004 -1424q-25 -39 -68 -39h-96q-37 0 -37 25zM429 1002 q0 -115 90 -118h8q83 0 113 58q30 60 30 151t-30 152q-30 59 -115 59h-4q-89 -2 -92 -92v-210zM1082 394q0 161 101 281.5t278 120.5t266.5 -120.5t89.5 -281.5q0 -164 -89 -283.5t-267 -119.5q-177 0 -278 119.5t-101 283.5zM1429 302q0 -115 90 -118h8q83 0 113 58 q30 60 30 151t-30 152q-30 59 -115 59h-4q-89 -2 -92 -92v-210z" />
<glyph unicode="&#x26;" horiz-adv-x="1926" d="M100 565q10 419 445 566q-233 134 -233 299q0 166 132 286t371 124q143 0 242.5 -27t205 -131t115.5 -252q0 -106 -44 -106h-8l-87 18q-106 17 -106 89q-30 115 -117 150q-41 16 -82 16q-47 0 -94 -21q-90 -40 -90 -205q0 -224 254 -242q44 -7 44 -20q0 -119 -109 -153 q-299 -55 -299 -391q0 -140 108 -227q119 -56 246 -56q72 0 148 18q206 50 294 238q38 83 38 158q0 26 -4 49q-59 31 -170 68q-37 11 -63 11q-55 0 -69 -51q-8 -26 -42 -26l-15 5q-47 12 -47 45q0 10 4 22q83 214 273 214q42 0 90 -12q72 -17 187 -90q49 -32 85 -32 q48 0 74 56q8 26 42 26l15 -5q20 -1 20 -36q0 -31 -15 -87q-33 -122 -192 -143q0 -192 -116 -390q-190 -326 -605 -330h-19q-402 0 -592 175q-215 179 -215 400z" />
<glyph unicode="'" horiz-adv-x="605" d="M150 1539v199q0 59 63 59h180q62 0 62 -59v-199q0 -47 -13 -77l-47 -157q-20 -67 -62 -68h-61q-42 1 -62 68l-47 157q-13 30 -13 77z" />
<glyph unicode="(" horiz-adv-x="872" d="M90 852q0 388 153 597t363 309q115 55 168 55q43 0 43 -38v-27q0 -27 -30 -39q-289 -145 -289 -381v-952q0 -236 289 -381q30 -12 30 -39v-27q0 -38 -43 -38q-53 0 -168 55q-210 100 -363 309t-153 597z" />
<glyph unicode=")" horiz-adv-x="872" d="M55 -44q0 27 30 39q289 145 289 381v952q0 236 -289 381q-30 12 -30 39v27q0 38 43 38q53 0 168 -55q210 -100 363 -309t153 -597t-153 -597t-363 -309q-115 -55 -168 -55q-43 0 -43 38v27z" />
<glyph unicode="*" d="M29 1203q0 14 6 30l62 169q15 44 50 44q12 0 26 -6l187 -68q45 -16 68 -38l206 -123q0 2 -1 4l-47 247q-13 30 -13 77v199q0 59 63 59h180q62 0 62 -59v-199q0 -47 -13 -77l-47 -247q0 -1 -1 -3l204 122q23 22 67 38l187 68q15 6 27 6q35 0 50 -44l62 -169q6 -16 6 -30 q0 -35 -40 -49l-187 -68q-39 -14 -70 -14h-7l-242 -40l193 -158q30 -14 60 -50l128 -153q17 -20 17 -38q0 -24 -28 -47l-137 -116q-23 -19 -43 -19q-23 0 -43 24l-128 153q-30 36 -39 67l-123 219l-2 4q0 -2 -1 -4l-122 -219q-10 -31 -40 -67l-128 -153q-20 -24 -43 -24 q-20 0 -42 19l-138 116q-28 23 -28 47q0 18 17 38l128 153q31 36 60 50l192 157h-3l-248 41h-7q-31 0 -70 14l-187 68q-40 14 -40 49z" />
<glyph unicode="+" d="M100 736v152q0 53 58 53h444v444q0 58 53 58h152q42 0 42 -55v-447h443q58 0 58 -53v-152q0 -42 -55 -42h-446v-446q0 -55 -42 -55h-152q-53 0 -53 58v443h-447q-55 0 -55 42z" />
<glyph unicode="," horiz-adv-x="703" d="M100 43v152q0 53 48 53h407q48 0 48 -53v-152l-225 -327q-25 -24 -57 -24h-106q-40 0 -40 35l75 274h-105q-45 0 -45 42z" />
<glyph unicode="-" horiz-adv-x="994" d="M100 573v152q0 53 48 53h698q48 0 48 -53v-152q0 -42 -45 -42h-704q-45 0 -45 42z" />
<glyph unicode="." horiz-adv-x="803" d="M150 43v152q0 53 48 53h407q48 0 48 -53v-152q0 -42 -45 -42l-413 -1q-45 1 -45 43z" />
<glyph unicode="/" horiz-adv-x="578" d="M-62 24q0 10 8 25l482 1712q9 36 42 36h126q42 0 42 -24q0 -10 -8 -25l-482 -1712q-9 -36 -42 -36h-126q-42 0 -42 24z" />
<glyph unicode="0" d="M85 713q0 292 166 508t473 216q309 0 475 -216t166 -508q0 -294 -166 -509.5t-475 -215.5q-307 0 -473 215.5t-166 509.5zM550 509l394 681q-75 57 -181 57q-113 0 -155 -47q-52 -26 -58 -156v-535zM567 257q9 -17 22 -24q59 -55 174 -55q173 0 265 153t92 382 q0 212 -80 360z" />
<glyph unicode="1" d="M83 43v52q0 53 48 53h334v973h-221q-59 4 -66 36q-2 5 -2 9q0 27 38 53l684 151q20 6 35 6q43 0 43 -52v-1176h342q48 0 48 -53v-52q0 -42 -45 -42h-1193q-45 0 -45 42z" />
<glyph unicode="2" d="M147 926v8q39 208 205 355q161 141 399 141h17q250 -5 392.5 -148t142.5 -336q0 -413 -375 -536l-218 -74q-75 -17 -83 -65q0 -16 14 -23h587q48 0 58 -53v-152q-10 -43 -55 -43h-1038q-27 0 -27 37q0 316 323 429t423 307v278q-3 125 -129 153q-33 7 -65 7 q-91 0 -172 -59q-110 -80 -167 -203q-23 -68 -64 -68h-135q-33 0 -33 45z" />
<glyph unicode="3" d="M158 -43q0 40 33 54l109 23q59 0 99 -40q91 -91 213 -91q183 0 222 33q26 13 26 77v504q-4 78 -38 93q-28 28 -210 28h-8q-46 0 -50 47q-1 6 -1 11q0 43 31 65q23 2 47 2h20q140 6 162 25q22 11 22 65v268q-3 65 -32 78q-24 23 -192 23q-162 -30 -218 -176 q-13 -13 -42 -13q-36 0 -98 23q-59 21 -59 59q10 32 44 77q123 213 393 243q309 0 452 -93t143 -296q0 -213 -143 -355q-14 -14 -28 -27q39 -27 75 -63q162 -162 162 -381t-162 -380.5t-499 -161.5q-238 0 -400 162q-73 71 -73 117z" />
<glyph unicode="4" d="M38 262l583 1152q12 24 72 24h371q63 0 63 -55v-1056h238q47 0 47 -66v-103q0 -56 -77 -56h-208v-360q0 -69 -83 -69h-343q-80 0 -80 69v360h-528q-54 0 -54 59zM302 348q0 -20 49 -20h222q48 0 48 58v549q0 43 -13 43q-8 0 -21 -18l-275 -590q-10 -13 -10 -22z" />
<glyph unicode="5" d="M147 -86q0 34 29 54q95 78 112 78q15 0 24 -13q107 -107 213 -107q26 0 53 4q157 26 215 142q53 103 53 195t-34 173q-65 160 -163 227q-92 62 -299 62h-34q-73 0 -111 92l-23 49q-5 17 -5 35q0 34 19 69l269 409q27 51 101 51h612q62 0 62 -32v-136q0 -56 -34 -56h-385 l-204 -318q326 -6 506 -189t180 -443t-180 -423.5t-461 -163.5q-340 20 -501 190q-14 28 -14 51z" />
<glyph unicode="6" d="M121 569v435q0 384 192.5 587.5t400.5 203.5q308 0 461 -153.5t153 -335.5q0 -62 -48 -62h-9l-113 -3q-59 1 -59 65q0 88 -81.5 169.5t-203.5 81.5t-175 -81q-43 -67 -51 -323q65 14 136 14q257 0 430.5 -174.5t173.5 -409.5q0 -236 -173.5 -409.5t-430.5 -173.5 q-254 0 -428 174q-170 168 -175 395zM586 360q0 -70 27 -84q42 -35 132 -35q131 0 228.5 98.5t97.5 243.5t-97.5 243t-228.5 98q-88 0 -118 -29q-37 -17 -41 -100v-435z" />
<glyph unicode="7" d="M146 1255v121q0 57 63 57h1061q34 0 34 -27q0 -6 -1 -12l-441 -1620l-13 -50q-14 -51 -105 -51h-359q-70 0 -70 52q0 18 9 43l381 1414q2 6 2 11q0 16 -20 16h-490q-51 0 -51 46z" />
<glyph unicode="8" d="M163 530q0 219 162 381q36 36 75 63q-14 13 -28 27q-143 142 -143 335t143 336t352 143q210 0 352.5 -143t142.5 -336t-142 -335q-14 -14 -28 -26q39 -28 75 -64q162 -162 162 -381t-162 -380.5t-400 -161.5q-237 0 -399 161.5t-162 380.5zM595 323q0 -64 26 -77 q39 -33 122 -33q122 0 212.5 91t90.5 226q0 136 -90.5 227t-212.5 91q-82 0 -110 -28q-34 -15 -38 -93v-404zM620 1163q0 -54 22 -65q22 -19 62 -25h20q24 0 47 -2q85 9 151 76q76 76 76 189q0 114 -76 190t-178 76q-68 0 -92 -23q-29 -13 -32 -78v-338z" />
<glyph unicode="9" d="M121 147q0 62 48 62h9l113 3q58 -1 58 -65q0 -88 82 -169.5t204 -81.5t175 82q43 66 51 322q-65 -14 -136 -14q-257 0 -430.5 174.5t-173.5 409.5q0 236 173.5 409.5t430.5 173.5q254 0 429 -173q169 -169 174 -396v-435q0 -384 -192.5 -587.5t-400.5 -203.5 q-308 0 -461 153.5t-153 335.5zM378 870q0 -145 97.5 -243t228.5 -98q88 0 118 29q37 17 41 100v435q0 70 -27 84q-42 35 -132 35q-131 0 -228.5 -98.5t-97.5 -243.5z" />
<glyph unicode=":" horiz-adv-x="803" d="M150 43v152q0 53 48 53h407q48 0 48 -53v-152q0 -42 -45 -42l-413 -1q-45 1 -45 43zM150 1592v152q0 53 48 53h407q48 0 48 -53v-152q0 -42 -45 -42l-413 -1q-45 1 -45 43z" />
<glyph unicode=";" horiz-adv-x="803" d="M150 43v152q0 53 48 53h407q48 0 48 -53v-152l-225 -327q-25 -24 -57 -24h-106q-40 0 -40 35l75 274h-105q-45 0 -45 42zM150 1592v152q0 53 48 53h407q48 0 48 -53v-152q0 -42 -45 -42l-413 -1q-45 1 -45 43z" />
<glyph unicode="&#x3c;" d="M101 825v22q0 41 48 70l1130 509q21 8 35 8q34 0 34 -43v-229q0 -60 -56 -84l-522 -282q-26 -8 -26 -15q0 -8 25 -14l536 -198q43 -17 43 -81v-92q0 -61 -53 -61q-10 0 -21 2l-1120 424q-53 22 -53 64z" />
<glyph unicode="=" d="M150 536v152q0 53 48 53h1054q48 0 48 -53v-152q0 -42 -45 -42h-1060q-45 0 -45 42zM150 936v152q0 53 48 53h1054q48 0 48 -53v-152q0 -42 -45 -42h-1060q-45 0 -45 42z" />
<glyph unicode="&#x3e;" d="M101 378v229q0 60 56 84l522 282q26 8 26 15q0 8 -25 14l-536 198q-43 17 -43 81v92q0 61 53 61q10 0 21 -2l1120 -424q53 -22 53 -64v-22q0 -41 -48 -70l-1130 -509q-21 -8 -35 -8q-34 0 -34 43z" />
<glyph unicode="?" horiz-adv-x="1413" d="M100 1509q0 21 15 52q42 87 111 149q181 150 451 153h23q208 0 330 -70q190 -93 256 -286q27 -79 27 -153q0 -103 -49 -204l-309 -414q-48 -95 -48 -209q0 -88 -101 -90h-347q-76 0 -76 83q0 159 115 364l271 362q25 50 25 108q0 42 -15 89q-32 90 -110 129 q-38 18 -75 18q-26 0 -55 -10q-79 -27 -119 -108q-22 -43 -83 -49l-183 38q-54 7 -54 48zM408 43v152q0 53 48 53h407q48 0 48 -53v-152q0 -42 -45 -42h-413q-45 0 -45 42z" />
<glyph unicode="@" horiz-adv-x="2352" d="M-10 853q0 212 95 430q194 367 607 461q202 45 677 45q182 0 334 -49q298 -97 463.5 -299t192.5 -426q3 -30 3 -60q0 -196 -149 -388q-163 -211 -467 -211q-11 0 -24 1q-131 8 -231 87q-78 -92 -340 -92h-35q-214 13 -348 167q-120 137 -120 308q0 21 2 42 q18 198 176 335q146 126 338 126q18 0 35 -1q129 -7 228 -64l1 9q3 41 37 41h3l400 -11q36 -3 36 -38v-5l-67 -631v-7q0 -91 100 -91q23 0 51 5q55 26 127 158q62 116 62 260q0 20 -1 42q-11 169 -113 305.5t-256 216t-341 94.5q-47 4 -97 4q-150 0 -426 -34 q-326 -78 -484 -348q-100 -169 -100 -346q0 -106 36 -215q95 -292 398 -433q182 -85 508 -85q132 0 238 38q16 4 30 4q19 0 34 -7q22 -11 35 -38l15 -39q7 -16 7 -29q0 -12 -5 -22q-13 -27 -57 -41q-159 -30 -311 -30q-522 0 -742 76q-368 145 -501 497q-54 143 -54 288z M846 820q0 -134 90 -211t196 -84h29q123 4 163.5 35.5t47.5 69.5l32 375q1 8 1 14q0 47 -31 80q-36 37 -158 56q-15 1 -29 2q-9 1 -19 1q-96 0 -190 -62q-117 -75 -130 -237q-2 -19 -2 -39z" />
<glyph unicode="A" horiz-adv-x="1551" d="M-10 31q0 15 10 38l613 1666q36 76 115 76q78 0 117 -78l707 -1670q9 -18 9 -30q0 -33 -60 -33h-122q-82 0 -108 49l-139 303h-548l-115 -311q-19 -41 -89 -41h-349q-41 0 -41 31zM656 617q0 -25 28 -25h322q29 0 29 24q0 4 -1 10l-185 428q-11 13 -22 13t-21 -16 l-148 -421q-2 -7 -2 -13z" />
<glyph unicode="B" horiz-adv-x="1604" d="M120 59v1689q0 49 63 49h522q277 0 378 -115t101 -263q0 -159 -45 -206q70 -15 196 -142q194 -193 194 -444q0 -248 -182 -431q-180 -180 -410 -196h-758q-59 0 -59 59zM617 318q0 -72 70 -72h209q116 7 208 99q113 115 113 282q0 169 -101 271q-111 110 -274 114h-152 q-73 0 -73 -63v-631zM617 1317q0 -59 54 -59h108q28 4 52 29q46 45 46 127q-3 138 -126 138h-79q-55 0 -55 -57v-178z" />
<glyph unicode="C" horiz-adv-x="1932" d="M100 864q0 19 1 39q-1 20 -1 39q0 137 43 269q105 324 435 494q207 106 449 106q145 0 302 -38q330 -109 494 -347q19 -36 19 -62q0 -39 -44 -55l-70 -46q-36 -13 -63 -13q-46 0 -65 37q-186 182 -383 246q-128 29 -219 29q-104 0 -159 -38q-90 -53 -90 -281v-681 q0 -228 90 -281q55 -38 159 -38q91 0 219 29q197 64 383 246q19 37 65 37q27 0 63 -13l70 -46q44 -16 44 -55q0 -26 -19 -62q-164 -238 -494 -347q-157 -38 -302 -38q-242 0 -449 107q-330 169 -435 493q-43 132 -43 270z" />
<glyph unicode="D" horiz-adv-x="1799" d="M110 49v1700q0 48 48 48h728q347 -24 581 -269q242 -266 242 -627q0 -365 -246 -624q-234 -236 -525 -277h-774q-54 0 -54 49zM567 347q0 -99 88 -99h156q228 4 397 178q186 193 186 475q0 280 -182 478q-154 167 -447 172h-124q-74 0 -74 -114v-1090z" />
<glyph unicode="E" horiz-adv-x="1423" d="M120 59v1669q0 69 69 69h1140q69 0 69 -62v-122q0 -61 -60 -61h-666q-55 0 -55 -53v-651q0 -62 56 -62h117q58 0 58 -53v-152q0 -42 -55 -42h-128q-48 0 -48 -56v-174q0 -63 51 -63h675q55 0 55 -43v-161q0 -42 -49 -42h-1179q-50 0 -50 59z" />
<glyph unicode="F" horiz-adv-x="1098" d="M110 59v1669q0 69 69 69h840q69 0 69 -62v-122q0 -61 -60 -61h-366q-55 0 -55 -53v-651q0 -62 56 -62h127q58 0 58 -53v-152q0 -42 -55 -42h-138q-48 0 -48 -56v-421q0 -62 -59 -62h-388q-50 0 -50 59z" />
<glyph unicode="G" horiz-adv-x="2066" d="M125 860q0 20 1 40q-1 22 -1 44q0 136 42 267q105 324 435 494q207 106 449 106q145 0 302 -38q330 -109 494 -347q19 -36 19 -62q0 -39 -44 -55l-70 -46q-36 -13 -63 -13q-46 0 -65 37q-186 182 -383 246q-128 29 -219 29q-104 0 -159 -38q-90 -53 -90 -281v-816 q0 -92 41 -114q95 -65 238 -65q84 0 185 23q290 98 332 239q3 5 3 10q0 18 -50 18h-272q-71 0 -71 64v121q0 62 58 62h694q60 0 60 -58v-8q-5 -127 -156.5 -352.5t-481.5 -334.5q-157 -38 -302 -38q-242 0 -449 107q-330 169 -435 494q-42 130 -42 265z" />
<glyph unicode="H" horiz-adv-x="1618" d="M110 79v1649q0 69 73 69h357q76 0 76 -75v-873q0 -63 69 -63h435q74 0 74 76v872q0 63 67 63h169q78 0 78 -68v-1650q0 -79 -67 -79h-178q-69 0 -69 70v394q0 75 -59 75h-444q-75 0 -75 -89v-375q0 -75 -73 -75h-366q-67 0 -67 79z" />
<glyph unicode="I" horiz-adv-x="726" d="M110 79v1649q0 69 73 69h357q76 0 76 -75v-1647q0 -75 -73 -75h-366q-67 0 -67 79z" />
<glyph unicode="J" horiz-adv-x="870" d="M-200 -176q0 31 36 57l92 44q25 17 46 17q32 0 57 -38q36 -51 77 -51q21 0 45 14q67 40 68 142v1719q0 69 73 69h340q76 0 76 -75v-1717q-4 -296 -206 -385q-129 -58 -255 -58q-72 0 -142 19q-221 62 -305 230q-2 7 -2 13z" />
<glyph unicode="K" horiz-adv-x="1680" d="M125 79v1649q0 69 73 69h340q76 0 76 -75v-675q6 -12 14 -12q11 0 25 21l420 710q17 31 63 31h241q34 0 34 -26q0 -9 -5 -23l-382 -675q-6 -10 -6 -18q0 -12 16 -17q111 -46 293 -228q278 -279 278 -665v-82q0 -63 -57 -63h-199q-59 0 -59 53v92q0 302 -209 513 q-134 134 -163 144q-10 2 -19 2q-39 0 -59 -34l-226 -394v-301q0 -75 -73 -75h-349q-67 0 -67 79z" />
<glyph unicode="L" horiz-adv-x="935" d="M125 59v1669q0 69 73 69h340q76 0 76 -75v-1437q0 -38 24 -38h224q48 0 48 -53v-152q0 -42 -45 -42h-683q-57 0 -57 59z" />
<glyph unicode="M" horiz-adv-x="2130" d="M110 79v1649q0 69 73 69h437q51 0 89 -36l570 -659q11 -15 20 -15t16 13l459 648q42 49 99 49h69q78 0 78 -58v-1690q0 -49 -67 -49h-188q-59 0 -59 52v1190q-1 16 -11 16q-6 0 -15 -6l-484 -684q-10 -8 -20 -8q-13 0 -26 11l-513 575q-8 6 -13 6q-8 0 -8 -17v-1097 q0 -38 -73 -38h-366q-67 0 -67 79z" />
<glyph unicode="N" horiz-adv-x="1601" d="M110 79v1649q0 69 73 69h356q69 -4 92 -49l518 -934q13 -19 20 -19q8 0 8 24v922q0 56 79 56h157q78 0 78 -59v-1669q0 -69 -53 -69h-107q-53 0 -91 59l-597 1023q-14 28 -20 28q-7 0 -7 -27v-1008q0 -75 -73 -75h-366q-67 0 -67 79z" />
<glyph unicode="O" horiz-adv-x="2160" d="M90 902q0 386 285.5 671.5t703.5 285.5q421 0 706 -285.5t285 -671.5q0 -387 -285 -672t-706 -285q-418 0 -703.5 285t-285.5 672zM753 445q0 -142 56 -171q86 -72 270 -72q268 0 468 200.5t200 499.5q0 298 -200 499t-468 201q-181 0 -242 -62q-76 -33 -84 -204v-891z " />
<glyph unicode="P" horiz-adv-x="1584" d="M120 59v1669q0 69 73 69h744q231 -16 410 -196q182 -182 182 -431q0 -250 -194 -443q-167 -168 -397 -188h-276q-36 0 -36 -32v-439q0 -68 -53 -68h-406q-47 0 -47 59zM626 825q14 -39 65 -39h209q116 7 208 99q113 115 113 282q0 169 -101 271q-111 110 -274 114h-152 q-54 0 -68 -34v-693z" />
<glyph unicode="Q" horiz-adv-x="2200" d="M110 902q0 386 285.5 671.5t703.5 285.5q421 0 706 -285.5t285 -671.5q0 -387 -285 -672q-72 -72 -152 -125l6 -7q57 -92 126 -92q30 0 63 18q10 15 29 15q20 0 50 -18l106 -65q34 -21 34 -45q0 -15 -12 -31q-149 -96 -282 -96q-124 0 -235 82q-69 43 -134 122 q-142 -43 -305 -43q-418 0 -703.5 285t-285.5 672zM773 426q156 116 308 116q117 0 231 -68q72 -45 140 -129l20 -24q49 36 95 82q200 200 200 499q0 298 -200 499t-468 201q-181 0 -242 -62q-76 -33 -84 -204v-910zM912 228q76 -26 187 -26q60 0 117 10l-25 30 q-74 61 -140 61q-74 0 -139 -75z" />
<glyph unicode="R" horiz-adv-x="1579" d="M110 69v1659q0 69 73 69h744q230 -16 410 -195q182 -183 182 -432q0 -250 -181 -431q-105 -106 -135 -117q-14 -15 -14 -31q0 -7 3 -15l230 -398l73 -127q9 -16 9 -27q0 -24 -42 -24h-246q-36 0 -53 27l-286 512h-206q-50 0 -50 -44v-417q0 -78 -78 -78h-366 q-67 0 -67 69zM621 858q0 -72 70 -72h209q116 7 208 99q113 115 113 282q0 169 -101 271q-111 110 -274 114h-152q-73 0 -73 -63v-631z" />
<glyph unicode="S" horiz-adv-x="1055" d="M90 132q0 22 18 48l72 72q25 34 55 34q23 0 49 -20q59 -35 99 -35q28 0 47 16q29 24 29 67q0 26 -10 58l-169 515h-2q-135 410 -137 489v15q0 158 118 291q123 138 323 154q24 2 47 2q197 0 317 -117q9 -14 9 -31q0 -22 -17 -47l-73 -72q-25 -34 -55 -34q-23 0 -49 20 q-59 35 -99 35q-28 0 -46 -15q-30 -25 -30 -68q0 -26 10 -58l169 -515h2q135 -410 137 -489v-15q0 -158 -117 -290q-124 -139 -324 -155q-24 -2 -47 -2q-197 0 -317 117q-9 14 -9 30z" />
<glyph unicode="T" horiz-adv-x="1023" d="M45 1592v152q0 53 58 53h817q58 0 58 -53v-152q0 -42 -55 -42h-166v-1475q0 -75 -73 -75h-349q-67 0 -67 79v1471h-168q-55 0 -55 42z" />
<glyph unicode="U" horiz-adv-x="1713" d="M110 506v1222q0 69 73 69h357q76 0 76 -75v-1407q0 -67 54 -93q54 -27 193 -27q203 8 309.5 102.5t116.5 302.5v1139q0 58 57 58h199q58 0 58 -55v-1075q-14 -358 -193 -532t-548 -174q-271 0 -503 123t-249 422z" />
<glyph unicode="V" horiz-adv-x="1464" d="M10 1763q0 34 43 34h400q60 0 84 -56l336 -902q8 -26 15 -26q8 0 14 25l268 916q17 43 81 43h142q61 0 61 -53q0 -10 -2 -21l-534 -1673q-22 -53 -64 -53h-82q-41 0 -70 48l-684 1683q-8 21 -8 35z" />
<glyph unicode="W" horiz-adv-x="2093" d="M10 1763q0 34 43 34h400q60 0 84 -56l250 -716q8 -26 15 -26q8 0 14 25l63 178l-182 526q-8 21 -8 35q0 34 43 34h419v-2q45 -8 65 -54l250 -716q8 -26 15 -26q8 0 14 25l254 730q17 43 81 43h192q61 0 61 -53q0 -10 -2 -21l-590 -1674q-22 -53 -64 -53h-82q-41 0 -70 48 l-209 599q-10 24 -18 24t-14 -17l-212 -601q-22 -53 -64 -53h-82q-41 0 -70 48l-588 1684q-8 21 -8 35z" />
<glyph unicode="X" horiz-adv-x="1689" d="M10 1763q0 34 43 34h399q60 0 84 -56l382 -652q8 -13 15 -13t14 12l388 666q17 43 61 43h232q41 0 41 -28q0 -7 -3 -16l-577 -1004l422 -680q8 -21 8 -35q0 -34 -43 -34h-400q-60 0 -84 57l-143 221q-9 14 -17 14q-7 0 -12 -12l-131 -237q-17 -43 -61 -43h-272 q-25 0 -25 17q0 11 9 28l328 556l-650 1127q-8 21 -8 35z" />
<glyph unicode="Y" horiz-adv-x="1657" d="M10 1763q0 34 43 34h399q60 0 84 -56l368 -794q8 -26 15 -26q8 0 14 25l389 808q17 43 81 43h183q61 0 61 -53q0 -10 -2 -21l-566 -1226v-422q0 -75 -73 -75h-349q-67 0 -67 79v415l-572 1234q-8 21 -8 35z" />
<glyph unicode="Z" horiz-adv-x="1265" d="M25 1592v152q10 53 58 53h1099q44 0 44 -36q0 -11 -4 -25l-509 -1434q-4 -13 -4 -24q0 -30 40 -30h433q48 0 58 -53v-152q-10 -42 -55 -42l-1068 -1q-75 0 -75 43v8l4 11l518 1433q6 16 6 27q0 28 -37 28h-470q-28 0 -38 42z" />
<glyph unicode="[" horiz-adv-x="850" d="M90 -221v1949q0 69 73 69h564q48 0 48 -43v-42q0 -42 -45 -42h-251v-1843h248q48 0 48 -43v-42q0 -42 -45 -42h-573q-67 0 -67 79z" />
<glyph unicode="\" horiz-adv-x="578" d="M-62 1773q0 24 42 24h126q33 0 42 -36l482 -1712q8 -15 8 -25q0 -24 -42 -24h-126q-33 0 -42 36l-482 1712q-8 15 -8 25z" />
<glyph unicode="]" horiz-adv-x="850" d="M75 -216q0 43 48 43h248v1843h-251q-45 0 -45 42v42q0 43 48 43h564q73 0 73 -69v-1949q0 -79 -67 -79h-573q-45 0 -45 42v42z" />
<glyph unicode="^" d="M125 581q0 14 8 35l509 1130q29 48 70 48h22q42 0 64 -53l524 -1120q2 -11 2 -21q0 -53 -61 -53h-92q-64 0 -81 43l-298 636q-6 25 -14 25q-7 0 -15 -26l-282 -622q-24 -56 -84 -56h-229q-43 0 -43 34z" />
<glyph unicode="_" horiz-adv-x="1205" d="M-199 -263q0 53 48 53h1507q48 0 48 -53v-52q0 -42 -45 -42h-1513q-45 0 -45 42v52z" />
<glyph unicode="`" horiz-adv-x="534" d="M18 2171q0 19 15 40l107 108q16 9 31 9q21 0 38 -18l282 -282q22 -19 22 -38q0 -15 -13 -31l-37 -36q-12 -10 -30 -10q-20 0 -48 13l-349 207q-18 18 -18 38z" />
<glyph unicode="a" horiz-adv-x="2011" d="M75 902q0 363 268.5 631.5t661.5 268.5q235 0 425 -94v20q0 69 73 69h357q76 0 76 -75v-1647q0 -75 -73 -75h-366q-67 0 -67 79v17q-190 -94 -425 -94q-393 0 -661.5 268t-268.5 632zM436 901q0 -299 200 -449q177 -133 373 -133q26 0 53 2q226 20 297 85.5t71 167.5v691 q-8 71 -76.5 133.5t-292.5 82.5q-27 2 -53 2q-195 0 -372 -133q-200 -151 -200 -449z" />
<glyph unicode="b" horiz-adv-x="1604" d="M120 59v1689q0 49 63 49h522q277 0 378 -115t101 -263q0 -159 -45 -206q70 -15 196 -142q194 -193 194 -444q0 -248 -182 -431q-180 -180 -410 -196h-758q-59 0 -59 59zM617 318q0 -72 70 -72h209q116 7 208 99q113 115 113 282q0 169 -101 271q-111 110 -274 114h-152 q-73 0 -73 -63v-631zM617 1317q0 -59 54 -59h108q28 4 52 29q46 45 46 127q-3 138 -126 138h-79q-55 0 -55 -57v-178z" />
<glyph unicode="c" horiz-adv-x="1932" d="M100 864q0 19 1 39q-1 20 -1 39q0 137 43 269q105 324 435 494q207 106 449 106q145 0 302 -38q330 -109 494 -347q19 -36 19 -62q0 -39 -44 -55l-70 -46q-36 -13 -63 -13q-46 0 -65 37q-186 182 -383 246q-128 29 -219 29q-104 0 -159 -38q-90 -53 -90 -281v-681 q0 -228 90 -281q55 -38 159 -38q91 0 219 29q197 64 383 246q19 37 65 37q27 0 63 -13l70 -46q44 -16 44 -55q0 -26 -19 -62q-164 -238 -494 -347q-157 -38 -302 -38q-242 0 -449 107q-330 169 -435 493q-43 132 -43 270z" />
<glyph unicode="d" horiz-adv-x="1799" d="M110 49v1700q0 48 48 48h728q347 -24 581 -269q242 -266 242 -627q0 -365 -246 -624q-234 -236 -525 -277h-774q-54 0 -54 49zM567 347q0 -99 88 -99h156q228 4 397 178q186 193 186 475q0 280 -182 478q-154 167 -447 172h-124q-74 0 -74 -114v-1090z" />
<glyph unicode="e" horiz-adv-x="1971" d="M90 861q0 22 1 44q-1 20 -1 40q0 135 42 265q105 325 435 495q207 106 449 106q145 0 302 -38q300 -109 442 -369q136 -252 136 -454v-22q0 -58 -60 -58h-1098v-308q0 -228 90 -281q55 -38 159 -38q91 0 219 29q197 64 383 246q19 37 65 37q27 0 63 -13l70 -46 q44 -16 44 -55q0 -26 -19 -62q-164 -238 -494 -347q-157 -38 -302 -38q-242 0 -449 107q-330 169 -435 493q-42 131 -42 267zM738 1117h779q62 0 67 28q-72 321 -382 389q-101 23 -185 23q-143 0 -238 -65q-41 -22 -41 -114v-261z" />
<glyph unicode="f" horiz-adv-x="1098" d="M110 59v1669q0 69 69 69h840q69 0 69 -62v-122q0 -61 -60 -61h-366q-55 0 -55 -53v-651q0 -62 56 -62h127q58 0 58 -53v-152q0 -42 -55 -42h-138q-48 0 -48 -56v-421q0 -62 -59 -62h-388q-50 0 -50 59z" />
<glyph unicode="g" horiz-adv-x="2066" d="M125 860q0 20 1 40q-1 22 -1 44q0 136 42 267q105 324 435 494q207 106 449 106q145 0 302 -38q330 -109 494 -347q19 -36 19 -62q0 -39 -44 -55l-70 -46q-36 -13 -63 -13q-46 0 -65 37q-186 182 -383 246q-128 29 -219 29q-104 0 -159 -38q-90 -53 -90 -281v-816 q0 -92 41 -114q95 -65 238 -65q84 0 185 23q290 98 332 239q3 5 3 10q0 18 -50 18h-272q-71 0 -71 64v121q0 62 58 62h694q60 0 60 -58v-8q-5 -127 -156.5 -352.5t-481.5 -334.5q-157 -38 -302 -38q-242 0 -449 107q-330 169 -435 494q-42 130 -42 265z" />
<glyph unicode="h" horiz-adv-x="1618" d="M110 79v1649q0 69 73 69h357q76 0 76 -75v-873q0 -63 69 -63h435q74 0 74 76v872q0 63 67 63h169q78 0 78 -68v-1650q0 -79 -67 -79h-178q-69 0 -69 70v394q0 75 -59 75h-444q-75 0 -75 -89v-375q0 -75 -73 -75h-366q-67 0 -67 79z" />
<glyph unicode="i" horiz-adv-x="726" d="M110 79v1149q0 69 73 69h357q76 0 76 -75v-1147q0 -75 -73 -75h-366q-67 0 -67 79zM110 1592v152q0 53 61 54h387q58 0 58 -53v-152q0 -42 -53 -43h-398q-55 0 -55 42z" />
<glyph unicode="j" horiz-adv-x="820" d="M-250 -176q0 31 36 57l92 44q25 17 46 17q32 0 57 -38q36 -51 77 -51q21 0 45 14q67 40 68 142v1219q0 69 73 69h340q76 0 76 -75v-1217q-4 -296 -206 -385q-129 -58 -255 -58q-72 0 -142 19q-221 62 -305 230q-2 7 -2 13zM151 1592v152q0 53 61 54h387q58 0 58 -53v-152 q0 -42 -53 -43h-398q-55 0 -55 42z" />
<glyph unicode="k" horiz-adv-x="1680" d="M125 79v1649q0 69 73 69h340q76 0 76 -75v-675q6 -12 14 -12q11 0 25 21l420 710q17 31 63 31h241q34 0 34 -26q0 -9 -5 -23l-382 -675q-6 -10 -6 -18q0 -12 16 -17q111 -46 293 -228q278 -279 278 -665v-82q0 -63 -57 -63h-199q-59 0 -59 53v92q0 302 -209 513 q-134 134 -163 144q-10 2 -19 2q-39 0 -59 -34l-226 -394v-301q0 -75 -73 -75h-349q-67 0 -67 79z" />
<glyph unicode="l" horiz-adv-x="935" d="M125 59v1669q0 69 73 69h340q76 0 76 -75v-1437q0 -38 24 -38h224q48 0 48 -53v-152q0 -42 -45 -42h-683q-57 0 -57 59z" />
<glyph unicode="m" horiz-adv-x="2262" d="M110 79v1649q0 69 73 69h357q43 0 62 -24q76 25 138 25h78q174 0 333 -109q155 109 337 109h77q222 0 423 -179q150 -171 164 -337v-1211q0 -71 -78 -71h-157q-79 0 -79 69v1149q-10 151 -96 253q-96 83 -180 83q-80 0 -119 -8.5t-39 -72.5v-1404q0 -69 -78 -69h-157 q-79 0 -79 69v1149q-10 151 -96 253q-96 83 -180 83h-71q-47 0 -86.5 -7.5t-39.5 -56.5l-1 -1415q0 -75 -73 -75h-366q-67 0 -67 79z" />
<glyph unicode="n" horiz-adv-x="1862" d="M115 79v1649q0 69 73 69h357q50 0 67 -32q108 31 242 46q72 8 139 8q294 0 499 -150q251 -185 255 -451v-1149q0 -69 -57 -69h-179q-79 0 -79 78v1077q-9 242 -157 345q-113 77 -282 77q-53 0 -112 -7q-246 -33 -260 -144v-1351q0 -75 -73 -75h-366q-67 0 -67 79z" />
<glyph unicode="o" horiz-adv-x="2160" d="M90 902q0 386 285.5 671.5t703.5 285.5q421 0 706 -285.5t285 -671.5q0 -387 -285 -672t-706 -285q-418 0 -703.5 285t-285.5 672zM753 445q0 -142 56 -171q86 -72 270 -72q268 0 468 200.5t200 499.5q0 298 -200 499t-468 201q-181 0 -242 -62q-76 -33 -84 -204v-891z " />
<glyph unicode="p" horiz-adv-x="1584" d="M120 79v1649q0 69 73 69h744q231 -16 410 -196q182 -182 182 -431q0 -250 -194 -443q-167 -168 -397 -188h-312v-464q0 -75 -73 -75h-366q-67 0 -67 79zM626 825q14 -39 65 -39h209q116 7 208 99q113 115 113 282q0 169 -101 271q-111 110 -274 114h-152q-54 0 -68 -34 v-693z" />
<glyph unicode="q" horiz-adv-x="2200" d="M110 902q0 386 285.5 671.5t703.5 285.5q421 0 706 -285.5t285 -671.5q0 -387 -285 -672q-72 -72 -152 -125l6 -7q57 -92 126 -92q30 0 63 18q10 15 29 15q20 0 50 -18l106 -65q34 -21 34 -45q0 -15 -12 -31q-149 -96 -282 -96q-124 0 -235 82q-69 43 -134 122 q-142 -43 -305 -43q-418 0 -703.5 285t-285.5 672zM773 426q156 116 308 116q117 0 231 -68q72 -45 140 -129l20 -24q49 36 95 82q200 200 200 499q0 298 -200 499t-468 201q-181 0 -242 -62q-76 -33 -84 -204v-910zM912 228q76 -26 187 -26q60 0 117 10l-25 30 q-74 61 -140 61q-74 0 -139 -75z" />
<glyph unicode="r" horiz-adv-x="1579" d="M110 69v1659q0 69 73 69h744q230 -16 410 -195q182 -183 182 -432q0 -250 -181 -431q-105 -106 -135 -117q-14 -15 -14 -31q0 -7 3 -15l230 -398l73 -127q9 -16 9 -27q0 -24 -42 -24h-246q-36 0 -53 27l-286 512h-206q-50 0 -50 -44v-417q0 -78 -78 -78h-366 q-67 0 -67 69zM621 858q0 -72 70 -72h209q116 7 208 99q113 115 113 282q0 169 -101 271q-111 110 -274 114h-152q-73 0 -73 -63v-631z" />
<glyph unicode="s" horiz-adv-x="1055" d="M90 132q0 22 18 48l72 72q25 34 55 34q23 0 49 -20q59 -35 99 -35q28 0 47 16q29 24 29 67q0 26 -10 58l-169 515h-2q-135 410 -137 489v15q0 158 118 291q123 138 323 154q24 2 47 2q197 0 317 -117q9 -14 9 -31q0 -22 -17 -47l-73 -72q-25 -34 -55 -34q-23 0 -49 20 q-59 35 -99 35q-28 0 -46 -15q-30 -25 -30 -68q0 -26 10 -58l169 -515h2q135 -410 137 -489v-15q0 -158 -117 -290q-124 -139 -324 -155q-24 -2 -47 -2q-197 0 -317 117q-9 14 -9 30z" />
<glyph unicode="t" horiz-adv-x="1023" d="M45 1592v152q0 53 58 53h817q58 0 58 -53v-152q0 -42 -55 -42h-166v-1475q0 -75 -73 -75h-349q-67 0 -67 79v1471h-168q-55 0 -55 42z" />
<glyph unicode="u" horiz-adv-x="1713" d="M110 506v1222q0 69 73 69h357q76 0 76 -75v-1407q0 -67 54 -93q54 -27 193 -27q203 8 309.5 102.5t116.5 302.5v1139q0 58 57 58h199q58 0 58 -55v-1075q-14 -358 -193 -532t-548 -174q-271 0 -503 123t-249 422z" />
<glyph unicode="v" horiz-adv-x="1464" d="M10 1763q0 34 43 34h400q60 0 84 -56l336 -902q8 -26 15 -26q8 0 14 25l268 916q17 43 81 43h142q61 0 61 -53q0 -10 -2 -21l-534 -1673q-22 -53 -64 -53h-82q-41 0 -70 48l-684 1683q-8 21 -8 35z" />
<glyph unicode="w" horiz-adv-x="2093" d="M10 1763q0 34 43 34h400q60 0 84 -56l250 -716q8 -26 15 -26q8 0 14 25l63 178l-182 526q-8 21 -8 35q0 34 43 34h419v-2q45 -8 65 -54l250 -716q8 -26 15 -26q8 0 14 25l254 730q17 43 81 43h192q61 0 61 -53q0 -10 -2 -21l-590 -1674q-22 -53 -64 -53h-82q-41 0 -70 48 l-209 599q-10 24 -18 24t-14 -17l-212 -601q-22 -53 -64 -53h-82q-41 0 -70 48l-588 1684q-8 21 -8 35z" />
<glyph unicode="x" horiz-adv-x="1689" d="M10 1763q0 34 43 34h399q60 0 84 -56l382 -652q8 -13 15 -13t14 12l388 666q17 43 61 43h232q41 0 41 -28q0 -7 -3 -16l-577 -1004l422 -680q8 -21 8 -35q0 -34 -43 -34h-400q-60 0 -84 57l-143 221q-9 14 -17 14q-7 0 -12 -12l-131 -237q-17 -43 -61 -43h-272 q-25 0 -25 17q0 11 9 28l328 556l-650 1127q-8 21 -8 35z" />
<glyph unicode="y" horiz-adv-x="1657" d="M10 1763q0 34 43 34h399q60 0 84 -56l368 -794q8 -26 15 -26q8 0 14 25l389 808q17 43 81 43h183q61 0 61 -53q0 -10 -2 -21l-566 -1226v-422q0 -75 -73 -75h-349q-67 0 -67 79v415l-572 1234q-8 21 -8 35z" />
<glyph unicode="z" horiz-adv-x="1265" d="M25 1592v152q10 53 58 53h1099q44 0 44 -36q0 -11 -4 -25l-509 -1434q-4 -13 -4 -24q0 -30 40 -30h433q48 0 58 -53v-152q-10 -42 -55 -42l-1068 -1q-75 0 -75 43v8l4 11l518 1433q6 16 6 27q0 28 -37 28h-470q-28 0 -38 42z" />
<glyph unicode="{" horiz-adv-x="828" d="M75 773q0 4 3 7q73 31 73 239l-1 439q0 122 50 229.5t275 108.5h224q54 0 54 -44q0 -49 -77 -64.5t-107.5 -55t-30.5 -86.5v-602q0 -128 -70 -169v-4q70 -41 70 -169v-602q0 -47 30.5 -86.5t107.5 -55t77 -64.5q0 -44 -54 -44l-224 1q-225 0 -275 107.5t-50 229.5l1 439 q0 208 -73 239q-3 4 -3 7z" />
<glyph unicode="|" horiz-adv-x="366" d="M100 -221v1949q0 69 73 69h17q76 0 76 -75v-1947q0 -75 -73 -75h-26q-67 0 -67 79z" />
<glyph unicode="}" horiz-adv-x="828" d="M75 -206q0 49 77 64.5t107.5 55t30.5 86.5v602q0 128 70 169v4q-70 41 -70 169v602q0 47 -30.5 86.5t-107.5 55t-77 64.5q0 44 54 44h224q225 -1 275 -108.5t50 -229.5l-1 -439q0 -208 73 -239q3 -3 3 -7q0 -3 -3 -7q-73 -31 -73 -239l1 -439q0 -122 -50 -229.5 t-275 -107.5l-224 -1q-54 0 -54 44z" />
<glyph unicode="~" d="M193 726q25 283 277 283q81 0 328 -100q103 -42 163 -42q83 0 84 80q10 30 49 30h124q39 0 39 -25q0 -3 -1 -7q-24 -296 -276 -296q-81 0 -327 95q-105 40 -165 40q-82 0 -83 -74q-8 -31 -34 -31q-7 0 -15 2h-124q-39 0 -39 45z" />
<glyph unicode="&#xa1;" horiz-adv-x="703" d="M100 1603v152q0 42 45 42h413q45 0 45 -42v-152q0 -53 -48 -53h-407q-48 0 -48 53zM107 76v1147q0 75 73 75h349q67 0 67 -79v-1149q0 -69 -73 -69h-340q-76 0 -76 75z" />
<glyph unicode="&#xa2;" d="M115 576q0 13 1 27q-1 14 -1 27q0 96 30 188q74 227 305 346q94 48 197 65v220q0 48 33 48h96q26 0 26 -45v-215q84 -4 173 -25q231 -76 346 -243q13 -25 13 -43q0 -28 -30 -39l-49 -32q-26 -9 -44 -9q-33 0 -46 26q-130 127 -268 172q-90 20 -153 20q-73 0 -112 -26 q-63 -38 -63 -197v-477q0 -159 63 -197q39 -26 112 -26q63 0 153 20q138 45 268 172q13 26 46 26q18 0 44 -9l49 -32q30 -11 30 -39q0 -18 -13 -43q-115 -167 -346 -243q-89 -21 -173 -25v-223q0 -45 -26 -45h-96q-33 0 -33 48v228q-103 17 -197 65q-231 119 -305 346 q-30 92 -30 189z" />
<glyph unicode="&#xa3;" d="M110 626v52q0 53 48 53h119q26 0 26 15q0 7 -6 17q-1 56 -82 263.5t-82 350.5v2q0 142 138 283q123 125 410 132q289 0 416 -174q15 -14 15 -35q0 -13 -6 -28l-80 -28q-26 -14 -47 -14q-27 0 -43 24q-57 45 -184 45h-16q-85 -14 -115 -43q-52 -53 -52 -130t92 -324 t92 -325v-2q6 -29 53 -29h186q48 0 48 -53v-52q0 -42 -45 -42h-179q-35 0 -35 -36q0 -6 1 -12q-3 -215 -53 -299q68 0 237 -45q45 -12 87 -12q117 0 213 92q17 18 29 18q11 0 18 -13l24 -121q3 -10 3 -18q0 -22 -16 -40q-64 -112 -238 -112q-94 0 -220 33q-188 49 -325 49 q-124 0 -205 -40q-103 -51 -146 -51q-29 0 -31 22l-19 139q-3 13 -3 23q0 31 29 41q179 77 179 264q0 41 -9 88q-6 30 -38 30h-143q-45 0 -45 42z" />
<glyph unicode="&#xa4;" d="M136 803q0 21 14 35l111 106q-35 47 -55 98q-34 79 -34 167q0 148 101 276l-123 118q-14 14 -14 35q0 19 11 43l107 108q17 6 30 6q23 0 39 -16l136 -139q117 57 269 57q136 0 243 -45l125 127q16 16 39 16q14 0 30 -6l107 -108q11 -24 11 -43q0 -21 -14 -35l-101 -98 q116 -137 116 -296q0 -144 -92 -268l107 -103q14 -14 14 -35q0 -19 -11 -43l-107 -108q-16 -6 -30 -6q-23 0 -39 16l-118 120q-120 -62 -280 -62q-97 0 -193 28q-47 17 -89 39l-123 -125q-16 -16 -39 -16q-13 0 -30 6l-107 108q-11 24 -11 43zM368 1210q0 -58 23 -110 q21 -52 68 -99q60 -60 144 -92q62 -18 125 -18q162 0 261 99.5t99 219.5q0 117 -98 216.5t-262 99.5q-162 0 -261 -99.5t-99 -216.5z" />
<glyph unicode="&#xa5;" horiz-adv-x="1657" d="M10 1763q0 34 43 34h399q60 0 84 -56l368 -794q8 -26 15 -26q8 0 14 25l389 808q17 43 81 43h183q61 0 61 -53q0 -10 -2 -21l-466 -1008h177q48 0 48 -53v-52q0 -42 -55 -42h-237l-39 -84v-69h283q48 0 48 -53v-52q0 -42 -45 -42h-286v-193q0 -75 -73 -75h-349 q-67 0 -67 79v189h-285q-45 0 -45 42v52q0 53 48 53h282v92l-28 61h-257q-45 0 -45 42v52q0 53 48 53h185l-469 1013q-8 21 -8 35z" />
<glyph unicode="&#xa6;" horiz-adv-x="466" d="M150 54v698q0 50 53 50h57q56 0 56 -53v-697q0 -52 -53 -52h-66q-47 0 -47 54zM150 1049v698q0 50 53 50h57q56 0 56 -52v-697q0 -53 -53 -53h-66q-47 0 -47 54z" />
<glyph unicode="&#xa7;" d="M229 880q0 84 23 143q94 163 290 163q41 0 86 -7q-23 67 -29 95q-10 68 -10 124q0 84 23 143q39 98 127 144.5t167 46.5q115 0 247 -97q8 -12 11 -29q1 -6 1 -12q0 -16 -6 -37l-43 -85q-13 -39 -35 -45q-4 -1 -8 -1q-14 0 -31 11q-35 17 -61 17q-9 0 -16 -2 q-20 -6 -32 -24q-13 -23 -13 -53q0 -9 2 -20q4 -25 16 -55l199 -470h2q59 -175 75 -267q7 -50 7 -95q0 -92 -33 -160q-101 -163 -279 -163q-41 0 -87 9q26 -75 32 -110q7 -50 7 -94q0 -93 -34 -161q-109 -177 -284 -177h-6q-166 23 -239 86q-8 12 -11 28q-1 5 -1 11 q0 18 7 40l42 84q13 39 35 45q4 1 7 1q15 0 51 -12.5t36 -14.5q0 -1 6 -1q9 0 16 2q20 6 31 25q14 23 14 52q0 10 -2 20q-4 25 -16 55l-200 470h-1q-59 175 -73 252q-10 68 -10 125zM555 863q0 -20 4 -45l157 -363q31 -70 85 -78q7 -1 14 -1q43 0 69 41q13 22 13 46 q0 29 -19 61l-145 334q-30 71 -73 89q-16 7 -31 7q-26 0 -49 -20q-25 -23 -25 -71z" />
<glyph unicode="&#xa8;" horiz-adv-x="854" d="M100 1973v132q0 53 48 53h158q48 0 48 -53v-132q0 -42 -45 -42h-164q-45 0 -45 42zM500 1973v132q0 53 48 53h158q48 0 48 -53v-132q0 -42 -45 -42h-164q-45 0 -45 42z" />
<glyph unicode="&#xa9;" horiz-adv-x="2386" d="M150 896q0 340 287.5 627.5t755.5 287.5q473 0 758 -287.5t285 -627.5q0 -348 -287.5 -633t-755.5 -285q-181 0 -363 53q-242 87 -420 261q-135 136 -195 291q-65 148 -65 313zM359 898q0 -134 54 -255q48 -120 157 -229q139 -139 332 -211q146 -43 291 -43 q374 0 604 229.5t230 508.5q0 272 -227 502t-607 230q-375 0 -604.5 -230t-229.5 -502zM754 896v40q0 70 21 136q53 163 220 249q104 53 225 53q74 0 153 -19q167 -55 249 -175q10 -18 10 -32q0 -19 -23 -27l-35 -23q-18 -7 -32 -7q-23 0 -32 19q-94 91 -194 124 q-64 14 -110 14q-53 0 -80 -18q-46 -28 -46 -142v-344q0 -114 46 -142q27 -18 80 -18q46 0 110 15q100 32 194 123q9 20 32 20q14 0 32 -8l35 -22q23 -9 23 -28q0 -13 -10 -31q-82 -120 -249 -175q-79 -20 -153 -20q-121 0 -225 54q-167 86 -220 249q-21 66 -21 135z" />
<glyph unicode="&#xaa;" d="M295 1419q0 153 124 265.5t306 112.5q108 0 196 -39v8q0 29 33 29h166q35 0 35 -32v-691q0 -32 -34 -32h-169q-31 0 -31 33v8q-88 -40 -196 -40q-182 0 -306 112.5t-124 265.5zM298 772v51q14 37 40 37h776q27 0 41 -37v-51q-14 -29 -39 -29h-780q-24 0 -38 29zM462 1419 q0 -126 92 -189q82 -56 172 -56q13 0 25 1q105 9 137.5 36t32.5 70v291q-4 30 -35.5 56t-134.5 35h-25q-90 0 -172 -56q-92 -63 -92 -188z" />
<glyph unicode="&#xab;" d="M76 360v195q0 37 32 58l294 234q11 10 11 19q0 10 -11 18l-302 205q-24 21 -24 53v81q6 34 27 34q14 0 35 -16l582 -384q31 -30 31 -58q0 -27 -28 -52l-608 -432q-9 -5 -16 -5q-23 0 -23 50zM670 360v195q0 37 32 58l294 234q11 10 11 19q0 10 -11 18l-302 205 q-24 21 -24 53v81q6 34 27 34q14 0 35 -16l582 -384q31 -30 31 -58q0 -27 -28 -52l-608 -432q-9 -5 -16 -5q-23 0 -23 50z" />
<glyph unicode="&#xac;" d="M100 736v152q0 53 48 53h1154q8 2 14 2q34 0 34 -45v-555q0 -55 -42 -55h-152q-55 0 -55 45q0 9 2 20v341h-958q-45 0 -45 42z" />
<glyph unicode="&#xad;" horiz-adv-x="994" d="M100 573v152q0 53 48 53h698q48 0 48 -53v-152q0 -42 -45 -42h-704q-45 0 -45 42z" />
<glyph unicode="&#xae;" horiz-adv-x="2386" d="M150 896q0 340 287.5 627.5t755.5 287.5q473 0 758 -287.5t285 -627.5q0 -348 -249 -588q-31 -33 -60 -33q-23 0 -44 23l-42 46q-19 23 -19 47q0 28 24 57q181 172 181 450q0 272 -227 502t-607 230q-375 0 -604.5 -230t-229.5 -502q0 -134 54 -255q48 -120 157 -229 q139 -139 332 -211q146 -43 291 -43q187 0 263 28q53 20 53 50q0 13 -10 28l-280 465h-129v-234q0 -39 -40 -39h-184q-33 0 -33 40v832q0 34 36 34h375q116 -8 207 -98q91 -92 91 -217q0 -126 -91 -217q-53 -54 -83 -66l347 -552q21 -35 21 -60q0 -29 -30 -45 q-176 -131 -513 -131q-181 0 -363 53q-242 87 -420 261q-135 136 -195 291q-65 148 -65 313zM1090 890q0 -36 36 -36h104q59 4 106 51q56 57 56 141q0 86 -50 137q-57 55 -138 58h-77q-37 0 -37 -31v-320z" />
<glyph unicode="&#xaf;" horiz-adv-x="1264" d="M100 1973v132q0 53 48 53h968q48 0 48 -53v-132q0 -42 -45 -42h-974q-45 0 -45 42z" />
<glyph unicode="&#xb0;" horiz-adv-x="752" d="M100 1326q0 90 76 166t200 76q125 0 200.5 -76t75.5 -166q0 -92 -76 -167.5t-200 -75.5q-48 0 -96 14q-64 23 -111 69q-36 36 -52 77q-17 39 -17 83zM238 1326q0 -22 9 -42q8 -20 26 -38q23 -23 55 -35q24 -7 48 -7q62 0 100 38t38 84q0 45 -37.5 83t-100.5 38 q-62 0 -100 -38t-38 -83z" />
<glyph unicode="&#xb1;" d="M100 42v152q0 53 58 53h444v447h-447q-55 0 -55 42v152q0 53 58 53h444v444q0 58 53 58h152q42 0 42 -55v-447h443q58 0 58 -53v-152q0 -42 -55 -42h-446v-447h443q58 0 58 -53v-152q0 -42 -55 -42h-1140q-55 0 -55 42z" />
<glyph unicode="&#xb2;" d="M320 1441v6q27 145 144 248q112 99 279 99h12q175 -3 274.5 -103.5t99.5 -235.5q0 -289 -262 -375l-153 -52q-52 -12 -58 -45q0 -11 10 -16h411q33 0 40 -37v-107q-7 -30 -38 -30h-727q-19 0 -19 26q0 221 226.5 300t296.5 215v195q-3 87 -91 107q-23 5 -45 5 q-64 0 -121 -42q-77 -56 -117 -142q-16 -47 -44 -47h-95q-23 0 -23 31z" />
<glyph unicode="&#xb3;" d="M363 764q0 28 23 38l76 16q42 0 70 -28q63 -63 149 -63q58 0 85 23q18 9 18 54v352q-2 55 -26 65q-20 20 -77 20h-6q-32 0 -35 33v8q0 30 21 45q16 2 33 2h14q28 4 44 17q15 8 15 46v187q-2 46 -22 55q-17 16 -65 16q-113 -21 -152 -123q-10 -9 -30 -9q-25 0 -68 16 q-42 14 -42 41q0 22 31 54q86 149 275 170q146 0 246.5 -65t100.5 -207q0 -149 -100 -249q-10 -10 -20 -19q27 -19 52 -44q114 -113 114 -267q0 -153 -113.5 -266t-279.5 -113t-280 113q-51 50 -51 82z" />
<glyph unicode="&#xb4;" horiz-adv-x="534" d="M18 1990q0 19 22 38l282 282q17 18 38 18q15 0 31 -9l107 -108q15 -21 15 -40q0 -20 -18 -38l-349 -207q-28 -13 -48 -13q-18 0 -30 10l-37 36q-13 16 -13 31z" />
<glyph unicode="&#xb5;" horiz-adv-x="1862" d="M115 -194v1922q0 69 57 69h179q79 0 79 -78v-1077q9 -242 158 -344q112 -78 281 -78q53 0 113 8q245 32 259 143v1351q0 75 73 75h366q67 0 67 -79v-1649q0 -69 -73 -69h-357q-50 0 -67 32q-108 -31 -242 -46q-71 -8 -138 -8q-253 0 -440 111v-274q0 -78 -79 -78h-179 q-57 0 -57 69z" />
<glyph unicode="&#xb6;" d="M168 1358q0 174 127 302q126 126 287 137h653q48 0 48 -40q0 -7 -2 -15v-2197q0 -36 -53 -36h-36q-47 0 -47 40v2024q0 18 -20 18h-66q-15 0 -15 -18v-2029q0 -35 -47 -35h-346q-51 0 -51 23v1347q0 37 -29 38q-150 13 -267 131q-136 135 -136 310z" />
<glyph unicode="&#xb7;" horiz-adv-x="728" d="M150 829v129q0 45 41 45h346q41 0 41 -45v-129q0 -35 -39 -35h-351q-38 0 -38 35z" />
<glyph unicode="&#xb8;" horiz-adv-x="496" d="M25 -305q0 49 50 52q12 -2 23 -2q79 0 103 82q3 11 3 22q0 81 -168 161h241q63 -5 121.5 -60t71.5 -135q1 -11 1 -22q0 -70 -69 -144q-80 -86 -276 -114q-5 -1 -10 -1q-38 0 -52 49z" />
<glyph unicode="&#xb9;" d="M268 865v37q14 37 41 37h234v681h-120q-75 3 -82 34q-2 5 -2 10q0 23 28 38l460 90q21 7 36 7q39 0 39 -47q0 -6 -1 -12v-801h239q27 0 41 -37v-37q-14 -29 -39 -29h-292q-6 -1 -14 -1h-234q-7 0 -13 1h-282q-25 0 -39 29z" />
<glyph unicode="&#xba;" d="M267 1395q0 163 132 282.5t325 119.5q195 0 326.5 -119.5t131.5 -282.5q0 -162 -131.5 -282t-326.5 -120q-193 0 -325 120t-132 282zM296 772v51q14 37 40 37h776q27 0 41 -37v-51q-14 -29 -39 -29h-780q-24 0 -38 29zM574 1203q0 -59 26 -72q39 -30 124 -30 q124 0 216.5 84.5t92.5 209.5q0 126 -92.5 210t-216.5 84q-84 0 -112 -26q-35 -14 -38 -85v-375z" />
<glyph unicode="&#xbb;" d="M76 768q0 27 28 53l608 431q9 5 17 5q22 0 22 -50v-194q0 -37 -32 -58l-294 -234q-10 -10 -10 -19t10 -18l302 -205q24 -22 24 -53v-81q-6 -34 -27 -34q-14 0 -35 16l-582 383q-31 30 -31 58zM670 768q0 27 28 53l608 431q9 5 17 5q22 0 22 -50v-194q0 -37 -32 -58 l-294 -234q-10 -10 -10 -19t10 -18l302 -205q24 -22 24 -53v-81q-6 -34 -27 -34q-14 0 -35 16l-582 383q-31 30 -31 58z" />
<glyph unicode="&#xbc;" horiz-adv-x="2180" d="M105 1664q0 23 28 38l460 90q21 7 36 7q39 0 39 -47q0 -6 -1 -12v-701h139q27 0 41 -37v-37q-14 -29 -39 -29h-635q-25 0 -39 29v37q14 37 41 37h134v581h-120q-75 3 -82 34q-2 5 -2 10zM358 26q0 8 4 19q6 14 18 34l1265 1649q45 69 118 69h57q46 0 46 -28q0 -7 -3 -17 q-5 -13 -16 -30l-1264 -1647q-48 -75 -121 -75h-66q-38 0 -38 26zM1182 215v70l408 707q9 17 51 17h259q45 0 45 -39v-639h96q33 0 33 -46v-72q0 -40 -54 -40h-75v-132q0 -48 -59 -48h-240q-56 0 -56 48v132h-369q-39 0 -39 42zM1370 346q0 -14 31 -14h156q33 0 33 40v284 q0 31 -9 31q-5 0 -14 -13l-193 -313q-4 -9 -4 -15z" />
<glyph unicode="&#xbd;" horiz-adv-x="2180" d="M120 964q0 28 23 38l76 16q42 0 70 -28q63 -63 149 -63q58 0 85 23q18 9 18 54v252q-2 55 -26 65q-20 20 -77 20h-6q-32 0 -35 33v8q0 30 21 45q16 2 33 2h14q28 4 44 17q15 8 15 46v87q-2 46 -22 55q-17 16 -65 16q-113 -21 -152 -123q-10 -9 -30 -9q-25 0 -68 16 q-42 14 -42 41q0 22 31 54q86 149 275 170q146 0 246.5 -65t100.5 -207q0 -49 -100 -149q-10 -10 -20 -19q106 -47 131 -210q6 -37 6 -70q0 -118 -69 -202q-89 -108 -295 -108q-166 0 -280 113q-51 50 -51 82zM344 26q0 8 4 19q6 14 18 34l1265 1649q45 69 118 69h57 q46 0 46 -28q0 -7 -3 -17q-5 -13 -16 -30l-1264 -1647q-48 -75 -121 -75h-66q-38 0 -38 26zM1168 215v70l408 707q9 17 51 17h259q45 0 45 -39v-639h96q33 0 33 -46v-72q0 -40 -54 -40h-75v-132q0 -48 -59 -48h-240q-56 0 -56 48v132h-369q-39 0 -39 42zM1356 346 q0 -14 31 -14h156q33 0 33 40v284q0 31 -9 31q-5 0 -14 -13l-193 -313q-4 -9 -4 -15z" />
<glyph unicode="&#xbe;" horiz-adv-x="2180" d="M91 1664q0 23 28 38l460 90q21 7 36 7q39 0 39 -47q0 -6 -1 -12v-701h139q27 0 41 -37v-37q-14 -29 -39 -29h-635q-25 0 -39 29v37q14 37 41 37h134v581h-120q-75 3 -82 34q-2 5 -2 10zM329 26q0 8 4 19q6 14 18 34l1265 1649q45 69 118 69h57q46 0 46 -28q0 -7 -3 -17 q-5 -13 -16 -30l-1264 -1647q-48 -75 -121 -75h-66q-38 0 -38 26zM1280 648v6q27 145 144 248q112 99 279 99h12q175 -3 274.5 -103.5t99.5 -235.5q0 -189 -262 -275l-153 -52q-52 -12 -58 -45q0 -11 10 -16h411q33 0 40 -37v-107q-7 -30 -38 -30h-727q-19 0 -19 26 q0 221 226.5 300t296.5 215v95q-3 87 -91 107q-23 5 -45 5q-64 0 -121 -42q-77 -56 -117 -142q-16 -47 -44 -47h-95q-23 0 -23 31z" />
<glyph unicode="&#xbf;" horiz-adv-x="1413" d="M100 444q0 103 49 204l309 414q48 95 48 209q0 88 101 90h347q76 0 76 -83q0 -159 -115 -364l-271 -362q-25 -50 -25 -108q0 -42 15 -89q32 -90 110 -129q38 -18 75 -18q26 0 55 10q79 27 119 108q22 43 83 49l183 -38q54 -7 54 -48q0 -21 -15 -52q-42 -87 -111 -149 q-181 -150 -451 -153h-23q-208 0 -330 70q-190 93 -256 286q-27 79 -27 153zM502 1603v152q0 42 45 42h413q45 0 45 -42v-152q0 -53 -48 -53h-407q-48 0 -48 53z" />
<glyph unicode="&#xc0;" horiz-adv-x="1732" d="M30 31q0 15 10 38l613 1666q36 76 115 76q78 0 117 -78l707 -1670q9 -18 9 -30q0 -33 -60 -33h-122q-82 0 -108 49l-139 303h-548l-115 -311q-19 -41 -89 -41h-349q-41 0 -41 31zM485 2171q0 19 15 40l107 108q16 9 31 9q21 0 38 -18l282 -282q22 -19 22 -38 q0 -15 -13 -31l-37 -36q-12 -10 -30 -10q-20 0 -48 13l-349 207q-18 18 -18 38zM696 617q0 -25 28 -25h322q29 0 29 24q0 4 -1 10l-185 428q-11 13 -22 13t-21 -16l-148 -421q-2 -7 -2 -13z" />
<glyph unicode="&#xc1;" horiz-adv-x="1732" d="M30 31q0 15 10 38l613 1666q36 76 115 76q78 0 117 -78l707 -1670q9 -18 9 -30q0 -33 -60 -33h-122q-82 0 -108 49l-139 303h-548l-115 -311q-19 -41 -89 -41h-349q-41 0 -41 31zM650 1990q0 19 22 38l282 282q17 18 38 18q15 0 31 -9l107 -108q15 -21 15 -40 q0 -20 -18 -38l-349 -207q-28 -13 -48 -13q-18 0 -30 10l-37 36q-13 16 -13 31zM696 617q0 -25 28 -25h322q29 0 29 24q0 4 -1 10l-185 428q-11 13 -22 13t-21 -16l-148 -421q-2 -7 -2 -13z" />
<glyph unicode="&#xc2;" horiz-adv-x="1732" d="M30 31q0 15 10 38l613 1666q36 76 115 76q78 0 117 -78l707 -1670q9 -18 9 -30q0 -33 -60 -33h-122q-82 0 -108 49l-139 303h-548l-115 -311q-19 -41 -89 -41h-349q-41 0 -41 31zM418 1946q0 12 18 31l350 303q13 11 25 11q13 0 25 -12l346 -302q18 -19 18 -31 q0 -23 -21 -25h-190q-38 0 -71 30l-94 87q-6 5 -12 5t-12 -5l-102 -85q-29 -32 -69 -32h-190q-21 2 -21 25zM696 617q0 -25 28 -25h322q29 0 29 24q0 4 -1 10l-185 428q-11 13 -22 13t-21 -16l-148 -421q-2 -7 -2 -13z" />
<glyph unicode="&#xc3;" horiz-adv-x="1732" d="M30 31q0 15 10 38l613 1666q36 76 115 76q78 0 117 -78l707 -1670q9 -18 9 -30q0 -33 -60 -33h-122q-82 0 -108 49l-139 303h-548l-115 -311q-19 -41 -89 -41h-349q-41 0 -41 31zM387 2080q0 10 4 22q83 214 273 214q42 0 90 -12q83 -20 169 -118q14 -6 26 -6q36 0 51 58 q8 26 42 26q15 0 35 -5l120 -30q47 -12 47 -45q0 -10 -4 -22q-78 -196 -264 -196q-44 0 -94 13q-81 20 -169 118q-12 5 -22 5q-40 0 -60 -76q-8 -26 -42 -26q-15 0 -35 5l-120 30q-47 12 -47 45zM696 617q0 -25 28 -25h322q29 0 29 24q0 4 -1 10l-185 428q-11 13 -22 13 t-21 -16l-148 -421q-2 -7 -2 -13z" />
<glyph unicode="&#xc4;" horiz-adv-x="1732" d="M30 31q0 15 10 38l613 1666q36 76 115 76q78 0 117 -78l707 -1670q9 -18 9 -30q0 -33 -60 -33h-122q-82 0 -108 49l-139 303h-548l-115 -311q-19 -41 -89 -41h-349q-41 0 -41 31zM488 1973v132q0 53 48 53h158q48 0 48 -53v-132q0 -42 -45 -42h-164q-45 0 -45 42z M696 617q0 -25 28 -25h322q29 0 29 24q0 4 -1 10l-185 428q-11 13 -22 13t-21 -16l-148 -421q-2 -7 -2 -13zM888 1973v132q0 53 48 53h158q48 0 48 -53v-132q0 -42 -45 -42h-164q-45 0 -45 42z" />
<glyph unicode="&#xc5;" horiz-adv-x="1735" d="M30 31q0 15 10 38l664 1652q13 28 32 46q-44 17 -82 54q-35 35 -52 78q-19 43 -19 94q0 100 71 171.5t171 71.5q101 0 172.5 -71.5t71.5 -171.5q0 -102 -72 -172q-42 -40 -93 -58q19 -17 32 -44l757 -1656q9 -18 9 -30q0 -33 -60 -33h-162q-82 0 -108 49l-149 303h-548 l-125 -311q-19 -41 -89 -41h-390q-41 0 -41 31zM735 1993q0 -38 26 -65t63 -27q39 0 66.5 27t27.5 65q0 37 -27.5 64t-66.5 27q-35 0 -62 -27t-27 -64zM753 632q0 -38 54 -40h290q35 7 35 25q0 11 -13 25l-158 340q-26 29 -47 29t-37 -29l-118 -321q-6 -16 -6 -29z" />
<glyph unicode="&#xc6;" horiz-adv-x="2366" d="M130 33q0 12 9 30l757 1656q39 78 117 78h1259q69 0 69 -62v-122q0 -61 -60 -61h-666q-55 0 -55 -53v-651q0 -62 56 -62h117q58 0 58 -53v-152q0 -42 -55 -42h-128q-48 0 -48 -56v-174q0 -63 51 -63h675q55 0 55 -43v-161q0 -42 -49 -42h-1179q-50 0 -50 59v293h-454 l-149 -303q-26 -49 -108 -49h-162q-60 0 -60 33zM700 617q0 -18 35 -25h290q25 1 38 9v862l-350 -821q-13 -14 -13 -25z" />
<glyph unicode="&#xc7;" horiz-adv-x="1932" d="M100 864q0 19 1 39q-1 20 -1 39q0 137 43 269q105 324 435 494q207 106 449 106q145 0 302 -38q330 -109 494 -347q19 -36 19 -62q0 -39 -44 -55l-70 -46q-36 -13 -63 -13q-46 0 -65 37q-186 182 -383 246q-128 29 -219 29q-104 0 -159 -38q-90 -53 -90 -281v-681 q0 -228 90 -281q55 -38 159 -38q91 0 219 29q197 64 383 246q19 37 65 37q27 0 63 -13l70 -46q44 -16 44 -55q0 -26 -19 -62q-164 -238 -494 -347q-94 -23 -184 -32q39 -15 77 -50q58 -55 71 -135q1 -11 1 -22q0 -70 -69 -144q-80 -86 -276 -114q-5 -1 -10 -1q-38 0 -52 49 l-39 112q0 49 50 52q12 -2 23 -2q79 0 103 82q3 11 3 22q0 79 -160 157q-152 24 -289 95q-330 169 -435 493q-43 132 -43 270z" />
<glyph unicode="&#xc8;" horiz-adv-x="1423" d="M120 59v1669q0 69 69 69h1140q69 0 69 -62v-122q0 -61 -60 -61h-666q-55 0 -55 -53v-651q0 -62 56 -62h117q58 0 58 -53v-152q0 -42 -55 -42h-128q-48 0 -48 -56v-174q0 -63 51 -63h675q55 0 55 -43v-161q0 -42 -49 -42h-1179q-50 0 -50 59zM429 2171q0 19 15 40l107 108 q16 9 31 9q21 0 38 -18l282 -282q22 -19 22 -38q0 -15 -13 -31l-37 -36q-12 -10 -30 -10q-20 0 -48 13l-349 207q-18 18 -18 38z" />
<glyph unicode="&#xc9;" horiz-adv-x="1423" d="M120 59v1669q0 69 69 69h1140q69 0 69 -62v-122q0 -61 -60 -61h-666q-55 0 -55 -53v-651q0 -62 56 -62h117q58 0 58 -53v-152q0 -42 -55 -42h-128q-48 0 -48 -56v-174q0 -63 51 -63h675q55 0 55 -43v-161q0 -42 -49 -42h-1179q-50 0 -50 59zM594 1990q0 19 22 38l282 282 q17 18 38 18q15 0 31 -9l107 -108q15 -21 15 -40q0 -20 -18 -38l-349 -207q-28 -13 -48 -13q-18 0 -30 10l-37 36q-13 16 -13 31z" />
<glyph unicode="&#xca;" horiz-adv-x="1423" d="M120 59v1669q0 69 69 69h1140q69 0 69 -62v-122q0 -61 -60 -61h-666q-55 0 -55 -53v-651q0 -62 56 -62h117q58 0 58 -53v-152q0 -42 -55 -42h-128q-48 0 -48 -56v-174q0 -63 51 -63h675q55 0 55 -43v-161q0 -42 -49 -42h-1179q-50 0 -50 59zM362 1946q0 12 18 31l350 303 q13 11 25 11q13 0 25 -12l346 -302q18 -19 18 -31q0 -23 -21 -25h-190q-38 0 -71 30l-94 87q-6 5 -12 5t-12 -5l-102 -85q-29 -32 -69 -32h-190q-21 2 -21 25z" />
<glyph unicode="&#xcb;" horiz-adv-x="1423" d="M120 59v1669q0 69 69 69h1140q69 0 69 -62v-122q0 -61 -60 -61h-666q-55 0 -55 -53v-651q0 -62 56 -62h117q58 0 58 -53v-152q0 -42 -55 -42h-128q-48 0 -48 -56v-174q0 -63 51 -63h675q55 0 55 -43v-161q0 -42 -49 -42h-1179q-50 0 -50 59zM432 1973v132q0 53 48 53h158 q48 0 48 -53v-132q0 -42 -45 -42h-164q-45 0 -45 42zM832 1973v132q0 53 48 53h158q48 0 48 -53v-132q0 -42 -45 -42h-164q-45 0 -45 42z" />
<glyph unicode="&#xcc;" horiz-adv-x="726" d="M33 2171q0 19 15 40l107 108q16 9 31 9q21 0 38 -18l282 -282q22 -19 22 -38q0 -15 -13 -31l-37 -36q-12 -10 -30 -10q-20 0 -48 13l-349 207q-18 18 -18 38zM110 79v1649q0 69 73 69h357q76 0 76 -75v-1647q0 -75 -73 -75h-366q-67 0 -67 79z" />
<glyph unicode="&#xcd;" horiz-adv-x="726" d="M110 79v1649q0 69 73 69h357q76 0 76 -75v-1647q0 -75 -73 -75h-366q-67 0 -67 79zM198 1990q0 19 22 38l282 282q17 18 38 18q15 0 31 -9l107 -108q15 -21 15 -40q0 -20 -18 -38l-349 -207q-28 -13 -48 -13q-18 0 -30 10l-37 36q-13 16 -13 31z" />
<glyph unicode="&#xce;" horiz-adv-x="726" d="M-42 1946q0 12 18 31l350 303q13 11 25 11q13 0 25 -12l346 -302q18 -19 18 -31q0 -23 -21 -25h-190q-38 0 -71 30l-94 87q-6 5 -12 5t-12 -5l-102 -85q-29 -32 -69 -32h-190q-21 2 -21 25zM102 79v1649q0 69 73 69h357q76 0 76 -75v-1647q0 -75 -73 -75h-366 q-67 0 -67 79z" />
<glyph unicode="&#xcf;" horiz-adv-x="726" d="M36 1973v132q0 53 48 53h158q48 0 48 -53v-132q0 -42 -45 -42h-164q-45 0 -45 42zM110 79v1649q0 69 73 69h357q76 0 76 -75v-1647q0 -75 -73 -75h-366q-67 0 -67 79zM436 1973v132q0 53 48 53h158q48 0 48 -53v-132q0 -42 -45 -42h-164q-45 0 -45 42z" />
<glyph unicode="&#xd0;" horiz-adv-x="1799" d="M-90 867v52q20 53 58 53h142v777q0 48 48 48h728q347 -24 581 -269q242 -266 242 -627q0 -365 -246 -624q-234 -236 -525 -277h-774q-54 0 -54 49v776h-145q-35 0 -55 42zM567 347q0 -99 88 -99h156q228 4 397 178q186 193 186 475q0 280 -182 478q-154 167 -447 172 h-124q-74 0 -74 -114v-465h288q38 0 58 -53v-52q-20 -42 -55 -42h-291v-478z" />
<glyph unicode="&#xd1;" horiz-adv-x="1601" d="M110 79v1649q0 69 73 69h356q69 -4 92 -49l518 -934q13 -19 20 -19q8 0 8 24v922q0 56 79 56h157q78 0 78 -59v-1669q0 -69 -53 -69h-107q-53 0 -91 59l-597 1023q-14 28 -20 28q-7 0 -7 -27v-1008q0 -75 -73 -75h-366q-67 0 -67 79zM372 2080q0 10 4 22q83 214 273 214 q42 0 90 -12q83 -20 169 -118q14 -6 26 -6q36 0 51 58q8 26 42 26q15 0 35 -5l120 -30q47 -12 47 -45q0 -10 -4 -22q-78 -196 -264 -196q-44 0 -94 13q-81 20 -169 118q-12 5 -22 5q-40 0 -60 -76q-8 -26 -42 -26q-15 0 -35 5l-120 30q-47 12 -47 45z" />
<glyph unicode="&#xd2;" horiz-adv-x="2160" d="M90 902q0 386 285.5 671.5t703.5 285.5q421 0 706 -285.5t285 -671.5q0 -387 -285 -672t-706 -285q-418 0 -703.5 285t-285.5 672zM750 2171q0 19 15 40l107 108q16 9 31 9q21 0 38 -18l282 -282q22 -19 22 -38q0 -15 -13 -31l-37 -36q-12 -10 -30 -10q-20 0 -48 13 l-349 207q-18 18 -18 38zM753 445q0 -142 56 -171q86 -72 270 -72q268 0 468 200.5t200 499.5q0 298 -200 499t-468 201q-181 0 -242 -62q-76 -33 -84 -204v-891z" />
<glyph unicode="&#xd3;" horiz-adv-x="2160" d="M90 902q0 386 285.5 671.5t703.5 285.5q421 0 706 -285.5t285 -671.5q0 -387 -285 -672t-706 -285q-418 0 -703.5 285t-285.5 672zM753 445q0 -142 56 -171q86 -72 270 -72q268 0 468 200.5t200 499.5q0 298 -200 499t-468 201q-181 0 -242 -62q-76 -33 -84 -204v-891z M915 1990q0 19 22 38l282 282q17 18 38 18q15 0 31 -9l107 -108q15 -21 15 -40q0 -20 -18 -38l-349 -207q-28 -13 -48 -13q-18 0 -30 10l-37 36q-13 16 -13 31z" />
<glyph unicode="&#xd4;" horiz-adv-x="2160" d="M90 902q0 386 285.5 671.5t703.5 285.5q421 0 706 -285.5t285 -671.5q0 -387 -285 -672t-706 -285q-418 0 -703.5 285t-285.5 672zM683 1946q0 12 18 31l350 303q13 11 25 11q13 0 25 -12l346 -302q18 -19 18 -31q0 -23 -21 -25h-190q-38 0 -71 30l-94 87q-6 5 -12 5 t-12 -5l-102 -85q-29 -32 -69 -32h-190q-21 2 -21 25zM753 445q0 -142 56 -171q86 -72 270 -72q268 0 468 200.5t200 499.5q0 298 -200 499t-468 201q-181 0 -242 -62q-76 -33 -84 -204v-891z" />
<glyph unicode="&#xd5;" horiz-adv-x="2160" d="M90 902q0 386 285.5 671.5t703.5 285.5q421 0 706 -285.5t285 -671.5q0 -387 -285 -672t-706 -285q-418 0 -703.5 285t-285.5 672zM652 2080q0 10 4 22q83 214 273 214q42 0 90 -12q83 -20 169 -118q14 -6 26 -6q36 0 51 58q8 26 42 26q15 0 35 -5l120 -30q47 -12 47 -45 q0 -10 -4 -22q-78 -196 -264 -196q-44 0 -94 13q-81 20 -169 118q-12 5 -22 5q-40 0 -60 -76q-8 -26 -42 -26q-15 0 -35 5l-120 30q-47 12 -47 45zM753 445q0 -142 56 -171q86 -72 270 -72q268 0 468 200.5t200 499.5q0 298 -200 499t-468 201q-181 0 -242 -62 q-76 -33 -84 -204v-891z" />
<glyph unicode="&#xd6;" horiz-adv-x="2160" d="M90 902q0 386 285.5 671.5t703.5 285.5q421 0 706 -285.5t285 -671.5q0 -387 -285 -672t-706 -285q-418 0 -703.5 285t-285.5 672zM753 445q0 -142 56 -171q86 -72 270 -72q268 0 468 200.5t200 499.5q0 298 -200 499t-468 201q-181 0 -242 -62q-76 -33 -84 -204v-891z M753 1973v132q0 53 48 53h158q48 0 48 -53v-132q0 -42 -45 -42h-164q-45 0 -45 42zM1153 1973v132q0 53 48 53h158q48 0 48 -53v-132q0 -42 -45 -42h-164q-45 0 -45 42z" />
<glyph unicode="&#xd7;" d="M213 462q0 20 22 42l314 314l-314 314q-22 22 -22 42q0 18 18 36l108 108q13 13 28 13q19 0 41 -22l316 -316l313 313q21 21 42 21q18 0 36 -18l108 -107q13 -13 13 -28q0 -19 -22 -41l-316 -315l316 -315q22 -22 22 -41q0 -15 -13 -28l-108 -107q-18 -18 -36 -18 q-21 0 -42 21l-313 313l-316 -316q-22 -22 -41 -22q-15 0 -28 13l-108 108q-18 18 -18 36z" />
<glyph unicode="&#xd8;" horiz-adv-x="2160" d="M90 902q0 386 285.5 671.5t703.5 285.5q382 0 652 -235l128 127q26 26 53 26t54 -27l40 -40q27 -27 27 -53q0 -24 -24 -47l-136 -136q197 -251 197 -572q0 -387 -285 -672t-706 -285q-322 0 -566 169l-165 -165q-30 -30 -58 -30q-24 0 -45 21l-47 47q-26 26 -26 52t27 53 l158 157q-267 279 -267 653zM753 646l775 774q-194 182 -449 182q-181 0 -242 -62q-76 -33 -84 -204v-690zM760 361q12 -68 49 -87q86 -72 270 -72q268 0 468 200.5t200 499.5q0 200 -90 356z" />
<glyph unicode="&#xd9;" horiz-adv-x="1713" d="M110 506v1222q0 69 73 69h357q76 0 76 -75v-1407q0 -67 54 -93q54 -27 193 -27q203 8 309.5 102.5t116.5 302.5v1139q0 58 57 58h199q58 0 58 -55v-1075q-14 -358 -193 -532t-548 -174q-271 0 -503 123t-249 422zM527 2171q0 19 15 40l107 108q16 9 31 9q21 0 38 -18 l282 -282q22 -19 22 -38q0 -15 -13 -31l-37 -36q-12 -10 -30 -10q-20 0 -48 13l-349 207q-18 18 -18 38z" />
<glyph unicode="&#xda;" horiz-adv-x="1713" d="M110 506v1222q0 69 73 69h357q76 0 76 -75v-1407q0 -67 54 -93q54 -27 193 -27q203 8 309.5 102.5t116.5 302.5v1139q0 58 57 58h199q58 0 58 -55v-1075q-14 -358 -193 -532t-548 -174q-271 0 -503 123t-249 422zM692 1990q0 19 22 38l282 282q17 18 38 18q15 0 31 -9 l107 -108q15 -21 15 -40q0 -20 -18 -38l-349 -207q-28 -13 -48 -13q-18 0 -30 10l-37 36q-13 16 -13 31z" />
<glyph unicode="&#xdb;" horiz-adv-x="1713" d="M110 506v1222q0 69 73 69h357q76 0 76 -75v-1407q0 -67 54 -93q54 -27 193 -27q203 8 309.5 102.5t116.5 302.5v1139q0 58 57 58h199q58 0 58 -55v-1075q-14 -358 -193 -532t-548 -174q-271 0 -503 123t-249 422zM460 1946q0 12 18 31l350 303q13 11 25 11q13 0 25 -12 l346 -302q18 -19 18 -31q0 -23 -21 -25h-190q-38 0 -71 30l-94 87q-6 5 -12 5t-12 -5l-102 -85q-29 -32 -69 -32h-190q-21 2 -21 25z" />
<glyph unicode="&#xdc;" horiz-adv-x="1713" d="M110 506v1222q0 69 73 69h357q76 0 76 -75v-1407q0 -67 54 -93q54 -27 193 -27q203 8 309.5 102.5t116.5 302.5v1139q0 58 57 58h199q58 0 58 -55v-1075q-14 -358 -193 -532t-548 -174q-271 0 -503 123t-249 422zM530 1973v132q0 53 48 53h158q48 0 48 -53v-132 q0 -42 -45 -42h-164q-45 0 -45 42zM930 1973v132q0 53 48 53h158q48 0 48 -53v-132q0 -42 -45 -42h-164q-45 0 -45 42z" />
<glyph unicode="&#xdd;" horiz-adv-x="1657" d="M10 1763q0 34 43 34h399q60 0 84 -56l368 -794q8 -26 15 -26q8 0 14 25l389 808q17 43 81 43h183q61 0 61 -53q0 -10 -2 -21l-566 -1226v-422q0 -75 -73 -75h-349q-67 0 -67 79v415l-572 1234q-8 21 -8 35zM664 1990q0 19 22 38l282 282q17 18 38 18q15 0 31 -9l107 -108 q15 -21 15 -40q0 -20 -18 -38l-349 -207q-28 -13 -48 -13q-18 0 -30 10l-37 36q-13 16 -13 31z" />
<glyph unicode="&#xde;" horiz-adv-x="1604" d="M120 -121v1849q0 69 73 69h357q76 0 76 -75v-125h311q231 -16 410 -196q182 -182 182 -431q0 -250 -194 -443q-167 -168 -397 -188h-312v-464q0 -75 -73 -75h-366q-67 0 -67 79zM626 625q14 -39 65 -39h209q116 7 208 99q113 115 113 282q0 169 -101 271 q-111 110 -274 114h-152q-54 0 -68 -34v-693z" />
<glyph unicode="&#xdf;" horiz-adv-x="1604" d="M120 -241v1989q0 49 63 49h522q277 0 378 -115t101 -263q0 -159 -45 -206q70 -15 196 -142q194 -193 194 -444q0 -248 -182 -431q-180 -180 -510 -196q-59 0 -61 42l-13 143q-1 7 -1 13q0 48 34 48q216 7 308 99q113 115 113 282q0 169 -101 271q-99 98 -168.5 105 t-69.5 64q29 146 29 248q0 237 -156 237h-79q-55 0 -55 -57v-1727q0 -68 -59 -68h-379q-59 0 -59 59z" />
<glyph unicode="&#xe0;" horiz-adv-x="2011" d="M75 902q0 363 268.5 631.5t661.5 268.5q235 0 425 -94v20q0 69 73 69h357q76 0 76 -75v-1647q0 -75 -73 -75h-366q-67 0 -67 79v17q-190 -94 -425 -94q-393 0 -661.5 268t-268.5 632zM436 901q0 -299 200 -449q177 -133 373 -133q26 0 53 2q226 20 297 85.5t71 167.5v691 q-8 71 -76.5 133.5t-292.5 82.5q-27 2 -53 2q-195 0 -372 -133q-200 -151 -200 -449zM676 2171q0 19 15 40l107 108q16 9 31 9q21 0 38 -18l282 -282q22 -19 22 -38q0 -15 -13 -31l-37 -36q-12 -10 -30 -10q-20 0 -48 13l-349 207q-18 18 -18 38z" />
<glyph unicode="&#xe1;" horiz-adv-x="2011" d="M75 902q0 363 268.5 631.5t661.5 268.5q235 0 425 -94v20q0 69 73 69h357q76 0 76 -75v-1647q0 -75 -73 -75h-366q-67 0 -67 79v17q-190 -94 -425 -94q-393 0 -661.5 268t-268.5 632zM436 901q0 -299 200 -449q177 -133 373 -133q26 0 53 2q226 20 297 85.5t71 167.5v691 q-8 71 -76.5 133.5t-292.5 82.5q-27 2 -53 2q-195 0 -372 -133q-200 -151 -200 -449zM841 1990q0 19 22 38l282 282q17 18 38 18q15 0 31 -9l107 -108q15 -21 15 -40q0 -20 -18 -38l-349 -207q-28 -13 -48 -13q-18 0 -30 10l-37 36q-13 16 -13 31z" />
<glyph unicode="&#xe2;" horiz-adv-x="2011" d="M75 902q0 363 268.5 631.5t661.5 268.5q235 0 425 -94v20q0 69 73 69h357q76 0 76 -75v-1647q0 -75 -73 -75h-366q-67 0 -67 79v17q-190 -94 -425 -94q-393 0 -661.5 268t-268.5 632zM436 901q0 -299 200 -449q177 -133 373 -133q26 0 53 2q226 20 297 85.5t71 167.5v691 q-8 71 -76.5 133.5t-292.5 82.5q-27 2 -53 2q-195 0 -372 -133q-200 -151 -200 -449zM609 1946q0 12 18 31l350 303q13 11 25 11q13 0 25 -12l346 -302q18 -19 18 -31q0 -23 -21 -25h-190q-38 0 -71 30l-94 87q-6 5 -12 5t-12 -5l-102 -85q-29 -32 -69 -32h-190 q-21 2 -21 25z" />
<glyph unicode="&#xe3;" horiz-adv-x="2011" d="M75 902q0 363 268.5 631.5t661.5 268.5q235 0 425 -94v20q0 69 73 69h357q76 0 76 -75v-1647q0 -75 -73 -75h-366q-67 0 -67 79v17q-190 -94 -425 -94q-393 0 -661.5 268t-268.5 632zM436 901q0 -299 200 -449q177 -133 373 -133q26 0 53 2q226 20 297 85.5t71 167.5v691 q-8 71 -76.5 133.5t-292.5 82.5q-27 2 -53 2q-195 0 -372 -133q-200 -151 -200 -449zM577 2080q0 10 4 22q83 214 273 214q42 0 90 -12q83 -20 169 -118q14 -6 26 -6q36 0 51 58q8 26 42 26q15 0 35 -5l120 -30q47 -12 47 -45q0 -10 -4 -22q-78 -196 -264 -196q-44 0 -94 13 q-81 20 -169 118q-12 5 -22 5q-40 0 -60 -76q-8 -26 -42 -26q-15 0 -35 5l-120 30q-47 12 -47 45z" />
<glyph unicode="&#xe4;" horiz-adv-x="2011" d="M75 902q0 363 268.5 631.5t661.5 268.5q235 0 425 -94v20q0 69 73 69h357q76 0 76 -75v-1647q0 -75 -73 -75h-366q-67 0 -67 79v17q-190 -94 -425 -94q-393 0 -661.5 268t-268.5 632zM436 901q0 -299 200 -449q177 -133 373 -133q26 0 53 2q226 20 297 85.5t71 167.5v691 q-8 71 -76.5 133.5t-292.5 82.5q-27 2 -53 2q-195 0 -372 -133q-200 -151 -200 -449zM679 1973v132q0 53 48 53h158q48 0 48 -53v-132q0 -42 -45 -42h-164q-45 0 -45 42zM1079 1973v132q0 53 48 53h158q48 0 48 -53v-132q0 -42 -45 -42h-164q-45 0 -45 42z" />
<glyph unicode="&#xe5;" horiz-adv-x="2061" d="M100 902q0 363 269 632q244 244 592 266q-3 1 -7 2q-52 17 -95 59q-35 35 -52 78q-19 43 -19 94q0 100 71 171.5t171 71.5q101 0 172.5 -71.5t71.5 -171.5q0 -102 -72 -172q-46 -45 -104 -61q195 -12 357 -92v20q0 69 73 69h357q76 0 76 -75v-1647q0 -75 -73 -75h-366 q-67 0 -67 79v17q-190 -94 -425 -94q-393 0 -661.5 268t-268.5 632zM461 901q0 -299 200 -449q177 -133 373 -133q26 0 53 2q226 20 297 85.5t71 167.5v691q-8 71 -76.5 133.5t-292.5 82.5q-27 2 -53 2q-195 0 -372 -133q-200 -151 -200 -449zM940 2033q0 -38 26 -65t63 -27 q39 0 66.5 27t27.5 65q0 37 -27.5 64t-66.5 27q-35 0 -62 -27t-27 -64z" />
<glyph unicode="&#xe6;" horiz-adv-x="3210" d="M100 902q0 363 268.5 631.5t661.5 268.5q235 0 425 -94v20q0 69 73 69h357q50 0 67 -32q144 46 303 46q145 0 302 -38q300 -109 442 -369q136 -252 136 -454v-22q0 -58 -60 -58h-1098v-308q0 -228 90 -281q55 -38 159 -38q91 0 219 29q197 64 383 246q19 37 65 37 q27 0 63 -13l70 -46q44 -16 44 -55q0 -26 -19 -62q-164 -238 -494 -347q-157 -38 -302 -38q-157 0 -300 45q-14 -39 -67 -39h-366q-67 0 -67 79v17q-190 -94 -425 -94q-393 0 -661.5 268t-268.5 632zM461 901q0 -299 200 -449q177 -133 373 -133q26 0 53 2q226 20 297 86 q27 24 43 54v882q-19 28 -48 56q-69 62 -293 82q-27 2 -53 2q-195 0 -372 -133q-200 -151 -200 -449zM1977 1117h779q62 0 67 28q-72 321 -382 389q-101 23 -185 23q-143 0 -238 -65q-41 -22 -41 -114v-261z" />
<glyph unicode="&#xe7;" horiz-adv-x="1932" d="M100 864q0 19 1 39q-1 20 -1 39q0 137 43 269q105 324 435 494q207 106 449 106q145 0 302 -38q330 -109 494 -347q19 -36 19 -62q0 -39 -44 -55l-70 -46q-36 -13 -63 -13q-46 0 -65 37q-186 182 -383 246q-128 29 -219 29q-104 0 -159 -38q-90 -53 -90 -281v-681 q0 -228 90 -281q55 -38 159 -38q91 0 219 29q197 64 383 246q19 37 65 37q27 0 63 -13l70 -46q44 -16 44 -55q0 -26 -19 -62q-164 -238 -494 -347q-94 -23 -184 -32q39 -15 77 -50q58 -55 71 -135q1 -11 1 -22q0 -70 -69 -144q-80 -86 -276 -114q-5 -1 -10 -1q-38 0 -52 49 l-39 112q0 49 50 52q12 -2 23 -2q79 0 103 82q3 11 3 22q0 79 -160 157q-152 24 -289 95q-330 169 -435 493q-43 132 -43 270z" />
<glyph unicode="&#xe8;" horiz-adv-x="1971" d="M90 861q0 22 1 44q-1 20 -1 40q0 135 42 265q105 325 435 495q207 106 449 106q145 0 302 -38q300 -109 442 -369q136 -252 136 -454v-22q0 -58 -60 -58h-1098v-308q0 -228 90 -281q55 -38 159 -38q91 0 219 29q197 64 383 246q19 37 65 37q27 0 63 -13l70 -46 q44 -16 44 -55q0 -26 -19 -62q-164 -238 -494 -347q-157 -38 -302 -38q-242 0 -449 107q-330 169 -435 493q-42 131 -42 267zM663 2171q0 19 15 40l107 108q16 9 31 9q21 0 38 -18l282 -282q22 -19 22 -38q0 -15 -13 -31l-37 -36q-12 -10 -30 -10q-20 0 -48 13l-349 207 q-18 18 -18 38zM738 1117h779q62 0 67 28q-72 321 -382 389q-101 23 -185 23q-143 0 -238 -65q-41 -22 -41 -114v-261z" />
<glyph unicode="&#xe9;" horiz-adv-x="1971" d="M90 861q0 22 1 44q-1 20 -1 40q0 135 42 265q105 325 435 495q207 106 449 106q145 0 302 -38q300 -109 442 -369q136 -252 136 -454v-22q0 -58 -60 -58h-1098v-308q0 -228 90 -281q55 -38 159 -38q91 0 219 29q197 64 383 246q19 37 65 37q27 0 63 -13l70 -46 q44 -16 44 -55q0 -26 -19 -62q-164 -238 -494 -347q-157 -38 -302 -38q-242 0 -449 107q-330 169 -435 493q-42 131 -42 267zM738 1117h779q62 0 67 28q-72 321 -382 389q-101 23 -185 23q-143 0 -238 -65q-41 -22 -41 -114v-261zM828 1990q0 19 22 38l282 282q17 18 38 18 q15 0 31 -9l107 -108q15 -21 15 -40q0 -20 -18 -38l-349 -207q-28 -13 -48 -13q-18 0 -30 10l-37 36q-13 16 -13 31z" />
<glyph unicode="&#xea;" horiz-adv-x="1971" d="M90 861q0 22 1 44q-1 20 -1 40q0 135 42 265q105 325 435 495q207 106 449 106q145 0 302 -38q300 -109 442 -369q136 -252 136 -454v-22q0 -58 -60 -58h-1098v-308q0 -228 90 -281q55 -38 159 -38q91 0 219 29q197 64 383 246q19 37 65 37q27 0 63 -13l70 -46 q44 -16 44 -55q0 -26 -19 -62q-164 -238 -494 -347q-157 -38 -302 -38q-242 0 -449 107q-330 169 -435 493q-42 131 -42 267zM596 1946q0 12 18 31l350 303q13 11 25 11q13 0 25 -12l346 -302q18 -19 18 -31q0 -23 -21 -25h-190q-38 0 -71 30l-94 87q-6 5 -12 5t-12 -5 l-102 -85q-29 -32 -69 -32h-190q-21 2 -21 25zM738 1117h779q62 0 67 28q-72 321 -382 389q-101 23 -185 23q-143 0 -238 -65q-41 -22 -41 -114v-261z" />
<glyph unicode="&#xeb;" horiz-adv-x="1971" d="M90 861q0 22 1 44q-1 20 -1 40q0 135 42 265q105 325 435 495q207 106 449 106q145 0 302 -38q300 -109 442 -369q136 -252 136 -454v-22q0 -58 -60 -58h-1098v-308q0 -228 90 -281q55 -38 159 -38q91 0 219 29q197 64 383 246q19 37 65 37q27 0 63 -13l70 -46 q44 -16 44 -55q0 -26 -19 -62q-164 -238 -494 -347q-157 -38 -302 -38q-242 0 -449 107q-330 169 -435 493q-42 131 -42 267zM666 1973v132q0 53 48 53h158q48 0 48 -53v-132q0 -42 -45 -42h-164q-45 0 -45 42zM738 1117h779q62 0 67 28q-72 321 -382 389q-101 23 -185 23 q-143 0 -238 -65q-41 -22 -41 -114v-261zM1066 1973v132q0 53 48 53h158q48 0 48 -53v-132q0 -42 -45 -42h-164q-45 0 -45 42z" />
<glyph unicode="&#xec;" horiz-adv-x="726" d="M33 1771q0 19 15 40l107 108q16 9 31 9q21 0 38 -18l282 -282q22 -19 22 -38q0 -15 -13 -31l-37 -36q-12 -10 -30 -10q-20 0 -48 13l-349 207q-18 18 -18 38zM110 79v1149q0 69 73 69h357q76 0 76 -75v-1147q0 -75 -73 -75h-366q-67 0 -67 79z" />
<glyph unicode="&#xed;" horiz-adv-x="726" d="M110 79v1149q0 69 73 69h357q76 0 76 -75v-1147q0 -75 -73 -75h-366q-67 0 -67 79zM198 1590q0 19 22 38l282 282q17 18 38 18q15 0 31 -9l107 -108q15 -21 15 -40q0 -20 -18 -38l-349 -207q-28 -13 -48 -13q-18 0 -30 10l-37 36q-13 16 -13 31z" />
<glyph unicode="&#xee;" horiz-adv-x="726" d="M-42 1538q0 14 26 39l377 325l395 -353q12 -10 12 -16q0 -12 -46 -12h-140q-70 0 -116 30l-105 97l-115 -95q-39 -32 -99 -32h-150q-39 0 -39 17zM110 79v1149q0 69 73 69h357q76 0 76 -75v-1147q0 -75 -73 -75h-366q-67 0 -67 79z" />
<glyph unicode="&#xef;" horiz-adv-x="726" d="M36 1673v132q20 53 58 53h138q38 0 58 -53v-132q-20 -42 -55 -42h-144q-35 0 -55 42zM110 79v1149q0 69 73 69h357q76 0 76 -75v-1147q0 -75 -73 -75h-366q-67 0 -67 79zM436 1673v132q20 53 58 53h138q38 0 58 -53v-132q-20 -42 -55 -42h-144q-35 0 -55 42z" />
<glyph unicode="&#xf0;" horiz-adv-x="2188" d="M90 902q0 386 285.5 671.5t703.5 285.5q421 0 706 -285q34 -35 64 -70q-27 153 -148 316q-69 93 -174 174l-100 -100q-16 -16 -39 -16q-13 0 -30 6l-37 37q-11 24 -11 43q0 21 15 36l79 79q-60 36 -129 70q-29 17 -29 43q0 10 5 22l17 51q9 26 31 26q10 0 22 -5 q103 -44 192 -98l85 85q15 15 36 15q19 0 43 -11l37 -37q6 -16 6 -30q0 -23 -16 -39l-68 -68q135 -105 228 -239q234 -301 234 -780q0 -88 -8 -182q-20 -387 -305 -672t-706 -285q-418 0 -703.5 285t-285.5 672zM753 445q0 -142 56 -171q86 -72 270 -72q268 0 468 200.5 t200 499.5q0 298 -200 499t-468 201q-181 0 -242 -62q-76 -33 -84 -204v-891z" />
<glyph unicode="&#xf1;" horiz-adv-x="1862" d="M115 79v1649q0 69 73 69h357q50 0 67 -32q108 31 242 46q72 8 139 8q294 0 499 -150q251 -185 255 -451v-1149q0 -69 -57 -69h-179q-79 0 -79 78v1077q-9 242 -157 345q-113 77 -282 77q-53 0 -112 -7q-246 -33 -260 -144v-1351q0 -75 -73 -75h-366q-67 0 -67 79z M503 2080q0 10 4 22q83 214 273 214q42 0 90 -12q83 -20 169 -118q14 -6 26 -6q36 0 51 58q8 26 42 26q15 0 35 -5l120 -30q47 -12 47 -45q0 -10 -4 -22q-78 -196 -264 -196q-44 0 -94 13q-81 20 -169 118q-12 5 -22 5q-40 0 -60 -76q-8 -26 -42 -26q-15 0 -35 5l-120 30 q-47 12 -47 45z" />
<glyph unicode="&#xf2;" horiz-adv-x="2160" d="M90 902q0 386 285.5 671.5t703.5 285.5q421 0 706 -285.5t285 -671.5q0 -387 -285 -672t-706 -285q-418 0 -703.5 285t-285.5 672zM750 2171q0 19 15 40l107 108q16 9 31 9q21 0 38 -18l282 -282q22 -19 22 -38q0 -15 -13 -31l-37 -36q-12 -10 -30 -10q-20 0 -48 13 l-349 207q-18 18 -18 38zM753 445q0 -142 56 -171q86 -72 270 -72q268 0 468 200.5t200 499.5q0 298 -200 499t-468 201q-181 0 -242 -62q-76 -33 -84 -204v-891z" />
<glyph unicode="&#xf3;" horiz-adv-x="2160" d="M90 902q0 386 285.5 671.5t703.5 285.5q421 0 706 -285.5t285 -671.5q0 -387 -285 -672t-706 -285q-418 0 -703.5 285t-285.5 672zM753 445q0 -142 56 -171q86 -72 270 -72q268 0 468 200.5t200 499.5q0 298 -200 499t-468 201q-181 0 -242 -62q-76 -33 -84 -204v-891z M915 1990q0 19 22 38l282 282q17 18 38 18q15 0 31 -9l107 -108q15 -21 15 -40q0 -20 -18 -38l-349 -207q-28 -13 -48 -13q-18 0 -30 10l-37 36q-13 16 -13 31z" />
<glyph unicode="&#xf4;" horiz-adv-x="2160" d="M90 902q0 386 285.5 671.5t703.5 285.5q421 0 706 -285.5t285 -671.5q0 -387 -285 -672t-706 -285q-418 0 -703.5 285t-285.5 672zM683 1946q0 12 18 31l350 303q13 11 25 11q13 0 25 -12l346 -302q18 -19 18 -31q0 -23 -21 -25h-190q-38 0 -71 30l-94 87q-6 5 -12 5 t-12 -5l-102 -85q-29 -32 -69 -32h-190q-21 2 -21 25zM753 445q0 -142 56 -171q86 -72 270 -72q268 0 468 200.5t200 499.5q0 298 -200 499t-468 201q-181 0 -242 -62q-76 -33 -84 -204v-891z" />
<glyph unicode="&#xf5;" horiz-adv-x="2160" d="M90 902q0 386 285.5 671.5t703.5 285.5q421 0 706 -285.5t285 -671.5q0 -387 -285 -672t-706 -285q-418 0 -703.5 285t-285.5 672zM652 2080q0 10 4 22q83 214 273 214q42 0 90 -12q83 -20 169 -118q14 -6 26 -6q36 0 51 58q8 26 42 26q15 0 35 -5l120 -30q47 -12 47 -45 q0 -10 -4 -22q-78 -196 -264 -196q-44 0 -94 13q-81 20 -169 118q-12 5 -22 5q-40 0 -60 -76q-8 -26 -42 -26q-15 0 -35 5l-120 30q-47 12 -47 45zM753 445q0 -142 56 -171q86 -72 270 -72q268 0 468 200.5t200 499.5q0 298 -200 499t-468 201q-181 0 -242 -62 q-76 -33 -84 -204v-891z" />
<glyph unicode="&#xf6;" horiz-adv-x="2160" d="M90 902q0 386 285.5 671.5t703.5 285.5q421 0 706 -285.5t285 -671.5q0 -387 -285 -672t-706 -285q-418 0 -703.5 285t-285.5 672zM753 445q0 -142 56 -171q86 -72 270 -72q268 0 468 200.5t200 499.5q0 298 -200 499t-468 201q-181 0 -242 -62q-76 -33 -84 -204v-891z M753 1973v132q0 53 48 53h158q48 0 48 -53v-132q0 -42 -45 -42h-164q-45 0 -45 42zM1153 1973v132q0 53 48 53h158q48 0 48 -53v-132q0 -42 -45 -42h-164q-45 0 -45 42z" />
<glyph unicode="&#xf7;" d="M100 737v152q0 53 58 53h1134q58 0 58 -53v-152q0 -42 -55 -42h-1140q-55 0 -55 42zM602 251v134q0 38 53 58h152q42 -20 42 -55v-140q0 -35 -42 -55h-152q-53 20 -53 58zM602 1251v134q0 38 53 58h152q42 -20 42 -55v-140q0 -35 -42 -55h-152q-53 20 -53 58z" />
<glyph unicode="&#xf8;" horiz-adv-x="2160" d="M90 902q0 386 285.5 671.5t703.5 285.5q382 0 652 -235l128 127q26 26 53 26t54 -27l40 -40q27 -27 27 -53q0 -24 -24 -47l-136 -136q197 -251 197 -572q0 -387 -285 -672t-706 -285q-322 0 -566 169l-165 -165q-30 -30 -58 -30q-24 0 -45 21l-47 47q-26 26 -26 52t27 53 l158 157q-267 279 -267 653zM753 646l775 774q-194 182 -449 182q-181 0 -242 -62q-76 -33 -84 -204v-690zM760 361q12 -68 49 -87q86 -72 270 -72q268 0 468 200.5t200 499.5q0 200 -90 356z" />
<glyph unicode="&#xf9;" horiz-adv-x="1713" d="M110 506v1222q0 69 73 69h357q76 0 76 -75v-1407q0 -67 54 -93q54 -27 193 -27q203 8 309.5 102.5t116.5 302.5v1139q0 58 57 58h199q58 0 58 -55v-1075q-14 -358 -193 -532t-548 -174q-271 0 -503 123t-249 422zM527 2171q0 19 15 40l107 108q16 9 31 9q21 0 38 -18 l282 -282q22 -19 22 -38q0 -15 -13 -31l-37 -36q-12 -10 -30 -10q-20 0 -48 13l-349 207q-18 18 -18 38z" />
<glyph unicode="&#xfa;" horiz-adv-x="1713" d="M110 506v1222q0 69 73 69h357q76 0 76 -75v-1407q0 -67 54 -93q54 -27 193 -27q203 8 309.5 102.5t116.5 302.5v1139q0 58 57 58h199q58 0 58 -55v-1075q-14 -358 -193 -532t-548 -174q-271 0 -503 123t-249 422zM692 1990q0 19 22 38l282 282q17 18 38 18q15 0 31 -9 l107 -108q15 -21 15 -40q0 -20 -18 -38l-349 -207q-28 -13 -48 -13q-18 0 -30 10l-37 36q-13 16 -13 31z" />
<glyph unicode="&#xfb;" horiz-adv-x="1713" d="M110 506v1222q0 69 73 69h357q76 0 76 -75v-1407q0 -67 54 -93q54 -27 193 -27q203 8 309.5 102.5t116.5 302.5v1139q0 58 57 58h199q58 0 58 -55v-1075q-14 -358 -193 -532t-548 -174q-271 0 -503 123t-249 422zM460 1946q0 12 18 31l350 303q13 11 25 11q13 0 25 -12 l346 -302q18 -19 18 -31q0 -23 -21 -25h-190q-38 0 -71 30l-94 87q-6 5 -12 5t-12 -5l-102 -85q-29 -32 -69 -32h-190q-21 2 -21 25z" />
<glyph unicode="&#xfc;" horiz-adv-x="1713" d="M110 506v1222q0 69 73 69h357q76 0 76 -75v-1407q0 -67 54 -93q54 -27 193 -27q203 8 309.5 102.5t116.5 302.5v1139q0 58 57 58h199q58 0 58 -55v-1075q-14 -358 -193 -532t-548 -174q-271 0 -503 123t-249 422zM530 1973v132q0 53 48 53h158q48 0 48 -53v-132 q0 -42 -45 -42h-164q-45 0 -45 42zM930 1973v132q0 53 48 53h158q48 0 48 -53v-132q0 -42 -45 -42h-164q-45 0 -45 42z" />
<glyph unicode="&#xfd;" horiz-adv-x="1657" d="M10 1763q0 34 43 34h399q60 0 84 -56l368 -794q8 -26 15 -26q8 0 14 25l389 808q17 43 81 43h183q61 0 61 -53q0 -10 -2 -21l-566 -1226v-422q0 -75 -73 -75h-349q-67 0 -67 79v415l-572 1234q-8 21 -8 35zM664 1990q0 19 22 38l282 282q17 18 38 18q15 0 31 -9l107 -108 q15 -21 15 -40q0 -20 -18 -38l-349 -207q-28 -13 -48 -13q-18 0 -30 10l-37 36q-13 16 -13 31z" />
<glyph unicode="&#xfe;" horiz-adv-x="1604" d="M120 79v1649q0 69 73 69h744q231 -16 410 -196q182 -182 182 -431q0 -250 -194 -443q-167 -168 -397 -188h-312v-292h231q48 0 48 -53v-152q0 -42 -45 -42h-673q-67 0 -67 79zM626 825q14 -39 65 -39h209q116 7 208 99q113 115 113 282q0 169 -101 271q-111 110 -274 114 h-152q-54 0 -68 -34v-693z" />
<glyph unicode="&#xff;" horiz-adv-x="1657" d="M10 1763q0 34 43 34h399q60 0 84 -56l368 -794q8 -26 15 -26q8 0 14 25l389 808q17 43 81 43h183q61 0 61 -53q0 -10 -2 -21l-566 -1226v-422q0 -75 -73 -75h-349q-67 0 -67 79v415l-572 1234q-8 21 -8 35zM502 1973v132q0 53 48 53h158q48 0 48 -53v-132q0 -42 -45 -42 h-164q-45 0 -45 42zM902 1973v132q0 53 48 53h158q48 0 48 -53v-132q0 -42 -45 -42h-164q-45 0 -45 42z" />
<glyph unicode="&#x152;" horiz-adv-x="2859" d="M50 902q0 386 285.5 671.5t703.5 285.5q275 0 492 -122q5 60 69 60h1140q69 0 69 -62v-122q0 -61 -60 -61h-666q-55 0 -55 -53v-533q2 -32 2 -64q0 -31 -2 -61q3 -55 56 -55h117q58 0 58 -53v-152q0 -42 -55 -42h-128q-48 0 -48 -56v-174q0 -63 51 -63h675q55 0 55 -43 v-161q0 -42 -49 -42h-1179q-50 0 -50 59v8q-217 -122 -492 -122q-418 0 -703.5 285t-285.5 672zM713 445q0 -142 56 -171q86 -72 270 -72q268 0 468 200.5t200 499.5q0 298 -200 499t-468 201q-181 0 -242 -62q-76 -33 -84 -204v-891z" />
<glyph unicode="&#x153;" horiz-adv-x="3305" d="M90 902q0 386 285.5 671.5t703.5 285.5q389 0 662 -244q66 49 145 90q207 106 449 106q145 0 302 -38q300 -109 442 -369q136 -252 136 -454v-22q0 -58 -60 -58h-1085q-3 -66 -13 -129v-179q0 -228 90 -281q55 -38 159 -38q91 0 219 29q197 64 383 246q19 37 65 37 q27 0 63 -13l70 -46q44 -16 44 -55q0 -26 -19 -62q-164 -238 -494 -347q-157 -38 -302 -38q-242 0 -449 107q-78 40 -144 89q-273 -245 -663 -245q-418 0 -703.5 285t-285.5 672zM753 445q0 -142 56 -171q86 -72 270 -72q268 0 468 200.5t200 499.5q0 298 -200 499t-468 201 q-181 0 -242 -62q-76 -33 -84 -204v-891zM2057 1117h779q62 0 67 28q-72 321 -382 389q-101 23 -185 23q-143 0 -238 -65q-41 -22 -41 -114v-261z" />
<glyph unicode="&#x178;" horiz-adv-x="1657" d="M10 1763q0 34 43 34h399q60 0 84 -56l368 -794q8 -26 15 -26q8 0 14 25l389 808q17 43 81 43h183q61 0 61 -53q0 -10 -2 -21l-566 -1226v-422q0 -75 -73 -75h-349q-67 0 -67 79v415l-572 1234q-8 21 -8 35zM502 1973v132q0 53 48 53h158q48 0 48 -53v-132q0 -42 -45 -42 h-164q-45 0 -45 42zM902 1973v132q0 53 48 53h158q48 0 48 -53v-132q0 -42 -45 -42h-164q-45 0 -45 42z" />
<glyph unicode="&#x2c6;" horiz-adv-x="832" d="M25 1946q0 12 18 31l350 303q13 11 25 11q13 0 25 -12l346 -302q18 -19 18 -31q0 -23 -21 -25h-190q-38 0 -71 30l-94 87q-6 5 -12 5t-12 -5l-102 -85q-29 -32 -69 -32h-190q-21 2 -21 25z" />
<glyph unicode="&#x2dc;" horiz-adv-x="907" d="M25 2080q0 10 4 22q83 214 273 214q42 0 90 -12q83 -20 169 -118q14 -6 26 -6q36 0 51 58q8 26 42 26q15 0 35 -5l120 -30q47 -12 47 -45q0 -10 -4 -22q-78 -196 -264 -196q-44 0 -94 13q-81 20 -169 118q-12 5 -22 5q-40 0 -60 -76q-8 -26 -42 -26q-15 0 -35 5l-120 30 q-47 12 -47 45z" />
<glyph unicode="&#x2000;" horiz-adv-x="1164" />
<glyph unicode="&#x2001;" horiz-adv-x="2328" />
<glyph unicode="&#x2002;" horiz-adv-x="1164" />
<glyph unicode="&#x2003;" horiz-adv-x="2328" />
<glyph unicode="&#x2004;" horiz-adv-x="776" />
<glyph unicode="&#x2005;" horiz-adv-x="582" />
<glyph unicode="&#x2006;" horiz-adv-x="388" />
<glyph unicode="&#x2007;" horiz-adv-x="388" />
<glyph unicode="&#x2008;" horiz-adv-x="291" />
<glyph unicode="&#x2009;" horiz-adv-x="465" />
<glyph unicode="&#x200a;" horiz-adv-x="129" />
<glyph unicode="&#x2010;" horiz-adv-x="994" d="M100 573v152q0 53 48 53h698q48 0 48 -53v-152q0 -42 -45 -42h-704q-45 0 -45 42z" />
<glyph unicode="&#x2011;" horiz-adv-x="994" d="M100 573v152q0 53 48 53h698q48 0 48 -53v-152q0 -42 -45 -42h-704q-45 0 -45 42z" />
<glyph unicode="&#x2012;" horiz-adv-x="994" d="M100 573v152q0 53 48 53h698q48 0 48 -53v-152q0 -42 -45 -42h-704q-45 0 -45 42z" />
<glyph unicode="&#x2013;" horiz-adv-x="1581" d="M100 573v152q0 53 58 53h1265q58 0 58 -53v-152q0 -42 -55 -42h-1271q-55 0 -55 42z" />
<glyph unicode="&#x2014;" horiz-adv-x="2110" d="M100 573v152q0 53 58 53h1794q58 0 58 -53v-152q0 -42 -55 -42h-1800q-55 0 -55 42z" />
<glyph unicode="&#x2018;" horiz-adv-x="703" d="M100 1294v152l225 327q25 24 57 24h106q40 0 40 -35l-75 -274h105q45 0 45 -42v-152q0 -53 -48 -53h-407q-48 0 -48 53z" />
<glyph unicode="&#x2019;" horiz-adv-x="703" d="M100 1592v152q0 53 48 53h407q48 0 48 -53v-152l-225 -327q-25 -24 -57 -24h-106q-40 0 -40 35l75 274h-105q-45 0 -45 42z" />
<glyph unicode="&#x201a;" horiz-adv-x="703" d="M100 73v152q0 53 48 53h407q48 0 48 -53v-152l-225 -327q-25 -24 -57 -24h-106q-40 0 -40 35l75 274h-105q-45 0 -45 42z" />
<glyph unicode="&#x201c;" horiz-adv-x="1307" d="M100 1294v152l225 327q25 24 57 24h106q40 0 40 -35l-75 -274h105q45 0 45 -42v-152q0 -53 -48 -53h-407q-48 0 -48 53zM704 1294v152l225 327q25 24 57 24h106q40 0 40 -35l-75 -274h105q45 0 45 -42v-152q0 -53 -48 -53h-407q-48 0 -48 53z" />
<glyph unicode="&#x201d;" horiz-adv-x="1307" d="M100 1592v152q0 53 48 53h407q48 0 48 -53v-152l-225 -327q-25 -24 -57 -24h-106q-40 0 -40 35l75 274h-105q-45 0 -45 42zM704 1592v152q0 53 48 53h407q48 0 48 -53v-152l-225 -327q-25 -24 -57 -24h-106q-40 0 -40 35l75 274h-105q-45 0 -45 42z" />
<glyph unicode="&#x201e;" horiz-adv-x="1307" d="M100 73v152q0 53 48 53h407q48 0 48 -53v-152l-225 -327q-25 -24 -57 -24h-106q-40 0 -40 35l75 274h-105q-45 0 -45 42zM704 73v152q0 53 48 53h407q48 0 48 -53v-152l-225 -327q-25 -24 -57 -24h-106q-40 0 -40 35l75 274h-105q-45 0 -45 42z" />
<glyph unicode="&#x2022;" horiz-adv-x="737" d="M150 829v329q0 45 41 45h346q41 0 41 -45v-329q0 -35 -39 -35h-351q-38 0 -38 35z" />
<glyph unicode="&#x2026;" horiz-adv-x="2048" d="M150 43v152q0 53 48 53h407q48 0 48 -53v-152q0 -42 -45 -42l-413 -1q-45 1 -45 43zM833 43v152q0 53 48 53h407q48 0 48 -53v-152q0 -42 -45 -42l-413 -1q-45 1 -45 43zM1516 43v152q0 53 48 53h407q48 0 48 -53v-152q0 -42 -45 -42l-413 -1q-45 1 -45 43z" />
<glyph unicode="&#x202f;" horiz-adv-x="465" />
<glyph unicode="&#x2039;" horiz-adv-x="904" d="M100 360v195q0 37 32 58l294 234q11 10 11 19q0 10 -11 18l-302 205q-24 21 -24 53v81q6 34 27 34q14 0 35 -16l582 -384q31 -30 31 -58q0 -27 -28 -52l-608 -432q-9 -5 -16 -5q-23 0 -23 50z" />
<glyph unicode="&#x203a;" horiz-adv-x="904" d="M129 768q0 27 28 53l608 431q9 5 17 5q22 0 22 -50v-194q0 -37 -32 -58l-294 -234q-10 -10 -10 -19t10 -18l302 -205q24 -22 24 -53v-81q-6 -34 -27 -34q-14 0 -35 16l-582 383q-31 30 -31 58z" />
<glyph unicode="&#x205f;" horiz-adv-x="582" />
<glyph unicode="&#x20ac;" horiz-adv-x="1692" d="M50 694v52q0 53 48 53h65q-2 32 -2 65q0 19 1 39q-1 20 -1 39v4h-66q-45 0 -45 42v52q0 53 48 53h74q10 59 26 118q89 324 369 494q176 106 382 106q123 0 257 -38q280 -109 420 -347q16 -36 16 -62q0 -39 -38 -55l-59 -46q-31 -13 -54 -13q-39 0 -55 37 q-158 182 -326 246q-108 29 -186 29q-88 0 -135 -38q-76 -53 -76 -281v-150h492q48 0 48 -53v-52q0 -42 -45 -42h-495v-147h492q48 0 48 -53v-52q0 -42 -45 -42h-495v-90q0 -228 76 -281q47 -38 135 -38q78 0 186 29q168 64 326 246q16 37 55 37q23 0 54 -13l59 -46 q38 -16 38 -55q0 -26 -16 -62q-140 -238 -420 -347q-134 -38 -257 -38q-206 0 -382 107q-280 169 -369 493q-8 29 -14 58h-89q-45 0 -45 42z" />
<glyph unicode="&#x2122;" horiz-adv-x="1650" d="M120 1715v61q9 21 26 21h708q23 0 40 -15l202 -297q7 -9 14 -9q9 0 18 11l241 290q19 20 44 20h81q35 0 35 -23v-676q0 -20 -30 -20h-85q-26 0 -26 21v428q0 14 -7 14q-5 0 -12 -6l-241 -275q-9 -10 -17 -10q-9 0 -18 11l-186 255q-4 7 -6 7q-4 0 -4 -15v-415 q0 -15 -33 -15h-164q-30 0 -30 32v588h-129v-590q0 -30 -33 -30h-157q-30 0 -30 32v588h-176q-16 0 -25 17z" />
<glyph unicode="&#x25fc;" horiz-adv-x="1795" d="M0 0v1795h1795v-1795h-1795z" />
<glyph unicode="&#xfb01;" horiz-adv-x="1824" d="M110 59v1669q0 69 69 69h840q69 0 69 -62v-122q0 -61 -60 -61h-366q-55 0 -55 -53v-651q0 -62 56 -62h127q58 0 58 -53v-152q0 -42 -55 -42h-138q-48 0 -48 -56v-421q0 -62 -59 -62h-388q-50 0 -50 59zM1208 79v1149q0 69 73 69h357q76 0 76 -75v-1147q0 -75 -73 -75 h-366q-67 0 -67 79zM1208 1592v152q0 53 61 54h387q58 0 58 -53v-152q0 -42 -53 -43h-398q-55 0 -55 42z" />
<glyph unicode="&#xfb02;" horiz-adv-x="2033" d="M110 59v1669q0 69 69 69h840q69 0 69 -62v-122q0 -61 -60 -61h-366q-55 0 -55 -53v-651q0 -62 56 -62h127q58 0 58 -53v-152q0 -42 -55 -42h-138q-48 0 -48 -56v-421q0 -62 -59 -62h-388q-50 0 -50 59zM1223 59v1669q0 69 73 69h340q76 0 76 -75v-1437q0 -38 24 -38h224 q48 0 48 -53v-152q0 -42 -45 -42h-683q-57 0 -57 59z" />
</font>
</defs>
</svg>
